<svg width="117" height="68" viewBox="0 0 117 68" fill="none" xmlns="http://www.w3.org/2000/svg">
<g filter="url(#filter0_d_2016_283)">
<path fill-rule="evenodd" clip-rule="evenodd" d="M50.9405 8.35019C50.7724 8.35019 50.8888 8.33887 50.85 8.31623C50.85 8.31623 50.7854 8.25961 50.7724 8.25961C50.7207 8.21432 50.669 8.19168 50.6432 8.14639C50.6302 7.88596 50.5656 7.97655 50.4104 7.86332C50.3717 7.82935 50.3329 7.77274 50.2812 7.72745L50.0614 7.59158C49.7899 7.42174 49.8157 7.31983 49.6218 7.20661L49.3245 7.02544C49.221 6.94619 49.1952 6.86693 49.0918 6.77635C49.0013 6.70841 48.9108 6.66312 48.8073 6.57254L48.3419 6.24418C48.2385 6.17625 48.0058 6.08566 47.9541 6.01773L47.5791 5.66673C47.5274 5.63276 47.4757 5.59879 47.4369 5.56482C47.3206 5.46292 46.9844 5.32705 46.7517 5.16853L46.6742 5.11192C46.338 4.87414 46.338 4.97604 45.976 4.64769C45.8855 4.55711 45.6011 4.47785 45.4718 4.40991L45.2133 4.24007C45.2003 4.24007 45.2003 4.22875 45.1874 4.22875C45.084 4.16081 44.9418 4.12685 44.8254 4.07023C44.7737 4.02494 44.7996 4.04759 44.7608 4.01362C44.3858 3.76452 44.4505 3.95701 44.179 3.71923C44.179 3.70791 44.1661 3.70791 44.1661 3.69658L44.0756 3.62865C43.9334 3.52675 43.8558 3.54939 43.7524 3.48145C43.6489 3.42484 43.7394 3.43616 43.6102 3.37955C43.4421 3.28897 43.1835 3.24368 43.0413 3.1531L42.912 3.09648C42.7698 3.03987 42.7957 3.05119 42.6922 2.94929L42.4854 2.81342C42.3302 2.70019 42.1751 2.74548 41.9165 2.56432L41.5546 2.37183C41.3994 2.3039 41.2572 2.29258 41.0762 2.28125C41.0116 2.19067 41.115 2.25861 41.0116 2.16803L40.8435 2.06612C40.7918 2.03216 40.7659 1.99819 40.7013 1.9529C40.5979 1.86232 40.7271 1.91893 40.5332 1.86232C40.2488 1.79438 40.1324 1.79438 39.9256 1.68115C39.6412 1.49999 39.6412 1.56793 39.3309 1.47735C39.2145 1.44338 39.0852 1.38676 38.943 1.34147C38.5681 1.21692 38.5681 1.16031 38.1027 1.14899L37.9734 1.00179C37.9734 0.990471 37.9605 0.990471 37.9605 0.979149C37.9605 0.979149 37.9476 0.979149 37.9476 0.967826L37.689 0.888568C37.689 0.888568 37.6761 0.877245 37.6631 0.877245L37.5597 0.8546C37.3658 0.820632 37.3787 0.764018 37.146 0.764018L37.0426 0.594179C36.7969 0.594179 36.5254 0.582856 36.3703 0.741373C36.4867 0.764018 36.4091 0.741373 36.5125 0.797986C36.6806 0.888568 36.6418 0.933858 36.9004 0.945181C36.9909 1.13767 36.8616 1.04708 37.146 1.11502C37.3011 1.14899 37.1848 1.12634 37.3011 1.18296L37.4175 1.22825C37.6114 1.31883 37.5726 1.26222 37.7666 1.30751L38.1285 1.3528L38.1932 1.52264C38.5164 1.53396 38.5293 1.57925 38.775 1.66983L39.5248 2.03216C39.5248 2.03216 39.5377 2.04348 39.5507 2.04348C39.6929 2.11141 39.8868 2.12274 40.029 2.16803C40.1583 2.21332 40.3134 2.21332 40.4556 2.25861C40.5979 2.31522 40.5203 2.3039 40.6237 2.39448L40.8564 2.4058C40.8823 2.46242 40.8564 2.47374 40.8952 2.53035L41.3089 2.8021C41.4253 2.904 41.4641 2.88135 41.658 2.94929C41.7485 2.98326 41.839 2.99458 41.9424 3.02855C42.02 3.03987 42.1493 3.05119 42.2139 3.08516L42.4078 3.20971C42.4725 3.26632 42.4595 3.35691 42.5242 3.41352C42.6017 3.47013 42.6922 3.47013 42.7698 3.51542L42.7827 3.52675C42.7957 3.53807 42.7957 3.53807 42.8086 3.54939C42.8086 3.54939 42.8215 3.54939 42.8215 3.56071C42.925 3.61733 42.9508 3.606 43.0413 3.66262L43.2611 3.77584C43.3516 3.80981 43.3774 3.87775 43.4938 3.93436L43.6489 4.0023C43.6877 4.02494 43.7524 4.05891 43.8041 4.07023C43.8946 4.1042 43.9463 4.09288 44.0239 4.14949C44.1531 4.22875 44.2307 4.31933 44.36 4.38727C44.4505 4.42123 44.4117 4.39859 44.5022 4.4552C44.6703 4.56843 44.5281 4.55711 44.7996 4.56843C44.8771 4.78356 44.9547 4.79488 45.2391 4.88546C45.6399 5.01001 45.265 4.98737 45.6011 5.15721C45.7304 5.21382 45.6528 5.15721 45.7175 5.25911C45.808 5.38366 45.9502 5.4063 46.0665 5.51953L46.8034 6.04037C46.9586 6.19889 47.1784 6.18757 47.3206 6.32344C47.3981 6.4027 47.3335 6.35741 47.4369 6.43667C47.4757 6.45931 47.5145 6.49328 47.5533 6.51592C47.7343 6.61783 47.7472 6.68576 47.9023 6.79899L48.691 7.43306C48.859 7.58025 49.0788 7.72745 49.234 7.90861C49.4925 8.203 49.4537 8.05581 49.8028 8.36152C49.8933 8.44077 49.9321 8.48607 50.0097 8.56532L50.1777 8.72384C50.1777 8.73516 50.1777 8.73516 50.1907 8.74649L50.4234 9.04088C50.4363 9.04088 50.4363 9.0522 50.4363 9.06352L50.488 9.13146C50.5268 9.16543 50.5656 9.18807 50.6044 9.21072L50.9276 9.5051C51.0569 9.66362 51.1474 9.64098 51.2896 9.83346L51.4447 10.0599C51.4964 10.1165 51.4447 10.0599 51.4835 10.1165C51.4964 10.1278 51.5223 10.1618 51.5223 10.1731C51.6386 10.3203 51.6386 10.1958 51.7679 10.343L52.0265 10.6147C52.1299 10.7619 52.1558 10.8978 52.3885 10.9318C52.4014 11.0563 52.4273 11.1242 52.5178 11.2148C52.5178 11.2148 52.5178 11.2261 52.5307 11.2261L52.6729 11.362C52.6729 11.3733 52.6858 11.3733 52.6858 11.3847L52.7117 11.4413C52.7246 11.4752 52.7375 11.4979 52.7505 11.5319C52.8022 11.6677 52.8539 11.781 52.9702 11.8829L53.2547 12.2225C53.3452 12.3924 53.3969 12.6415 53.5132 12.7774C53.5262 12.7887 53.552 12.834 53.5649 12.8453L53.5908 12.8906C53.6037 12.8906 53.6037 12.9019 53.6167 12.9019C53.733 13.0491 53.7718 13.0265 53.8494 13.2303C54.0045 13.7171 54.095 13.4001 54.2243 13.9209C54.2501 14.0568 54.3019 14.0681 54.3794 14.17C54.3924 14.17 54.3924 14.1814 54.3924 14.1814L54.4311 14.238C54.4829 14.3286 54.4958 14.521 54.5863 14.6116C54.7414 14.8041 54.5216 14.521 54.6251 14.6682C54.638 14.6682 54.638 14.6796 54.638 14.6796L54.6897 14.7928C54.7156 14.8607 54.7156 14.9173 54.7414 14.9853C54.7544 15.0306 54.7802 15.0532 54.7931 15.0872C54.8578 15.2004 54.7931 15.1664 54.9095 15.3476L54.9741 15.4382C55.0388 15.5288 55.0517 15.5967 55.0776 15.7099C55.1163 15.8231 55.1293 15.7779 55.2198 16.0949L55.3749 16.4685C55.4008 16.5818 55.3878 16.6837 55.4396 16.7969L55.6076 17.1479C55.6205 17.1705 55.6205 17.1479 55.6593 17.2385C55.711 17.397 55.6723 17.6687 55.7628 17.8273L56.073 18.6651C56.0989 18.8463 56.0989 18.6312 56.1248 18.8463C56.1506 19.0048 56.1377 19.1067 56.1765 19.2426C56.1765 19.2539 56.1894 19.2652 56.1894 19.2766L56.2411 19.7747C56.2411 19.9672 56.3057 20.0352 56.3316 20.1937C56.3575 20.3409 56.3704 20.522 56.3704 20.6692C56.3704 21.0202 56.4997 21.4052 56.3575 21.7675C56.3445 21.7675 56.3445 21.7789 56.3445 21.7902L56.3187 21.8468C56.2799 21.9713 56.267 22.028 56.1635 22.1072C56.1635 22.1185 56.1506 22.1185 56.1506 22.1299C55.8403 22.3903 55.8015 22.6167 55.3361 22.7979L55.2973 22.8658C55.2844 23.047 55.1551 23.2168 54.9871 23.3301C54.8319 23.4433 54.6251 23.7263 54.5475 23.7943L54.3536 23.9528C54.3406 23.9528 54.3406 23.9641 54.3277 23.9641L53.8752 24.4284C53.7718 24.5189 53.7201 24.5303 53.6554 24.6548C53.5262 24.9266 53.5649 24.8813 53.3322 25.0964C53.2805 25.1417 53.2547 25.1756 53.2159 25.2323C53.0607 25.4247 52.9444 25.4021 52.8539 25.504C52.841 25.504 52.841 25.5153 52.828 25.5153C52.7375 25.6286 52.647 25.7757 52.5307 25.855C52.3755 25.9343 52.3368 26.0815 52.2075 26.1947L52.1299 26.24C52.0265 26.3306 52.0006 26.4325 51.8843 26.5117C51.8326 26.557 51.7679 26.591 51.7291 26.6363L51.6774 26.7382C51.5481 26.9307 51.3801 27.1231 51.212 27.293C51.1086 27.4062 50.9922 27.4855 50.9146 27.6213C50.85 27.7346 50.9017 27.6893 50.7983 27.7685C50.7854 27.7912 50.7595 27.8025 50.7337 27.8251L50.4622 28.0742C50.4622 28.0742 50.4622 28.0856 50.4492 28.0856L50.1777 28.4479C50.1002 28.5385 50.1389 28.4932 50.0872 28.5951L49.8804 28.7876C49.5701 28.9801 49.8157 28.9801 49.4925 29.3084C49.3762 29.4443 49.2728 29.4896 49.221 29.5688C49.1952 29.6368 49.1693 29.6934 49.1435 29.7387C49.0659 29.8632 48.9883 29.8632 48.9108 30.0557L48.7815 30.2935C48.7685 30.2935 48.7427 30.3161 48.7427 30.3161L48.4453 30.7464C48.3548 30.8596 48.2902 31.0747 48.2126 31.1427C48.0833 31.2446 48.1609 31.12 48.0704 31.2786L47.7989 31.7201C47.7472 31.8107 47.7472 31.8673 47.7472 31.9692C47.605 32.0711 47.6309 32.0372 47.5533 32.1957C47.4757 32.3655 47.4111 32.5693 47.3076 32.7279C47.2947 32.7279 47.2947 32.7392 47.2947 32.7505L47.2559 32.7958C47.243 32.8071 47.243 32.8071 47.243 32.8184L47.0232 33.1355L47.0103 33.1468C46.8939 33.3846 46.8422 33.6337 46.7517 33.8828C46.7129 33.996 46.7129 34.1885 46.6483 34.3017L46.4673 34.7659C46.4156 34.9471 46.4673 35.0037 46.3639 35.2415C46.2217 35.5585 46.1312 37.3928 46.2475 37.7891C46.2863 37.9363 46.2992 38.208 46.351 38.3213L46.4415 38.4571C46.4932 38.6156 46.4673 38.6609 46.6095 38.8987C46.6224 38.8987 46.6224 38.91 46.6224 38.9213L46.6742 38.9666C46.7388 39.0346 46.6742 39.0006 46.7776 39.0346C46.9844 39.0912 46.8034 39.0346 46.9069 39.1478C46.9457 39.1931 46.9069 39.1591 46.9844 39.2044C47.062 39.2497 46.9715 39.1704 47.062 39.2497C47.1396 39.3063 47.1008 39.3063 47.1654 39.3856L47.3206 39.5214C47.4757 39.6686 47.3464 39.6573 47.6179 39.7479C47.8894 39.8498 47.6696 39.8725 47.9541 39.963C48.0316 39.9857 48.0704 39.9857 48.1351 40.0423C48.2256 40.1329 48.1221 40.1102 48.2643 40.1668C48.4324 40.2348 48.6005 40.2234 48.7815 40.2801L49.234 40.4499C49.6994 40.6311 50.5397 40.5858 50.9922 40.4273C51.1991 40.3593 51.1344 40.4273 51.3154 40.3254C51.3283 40.3254 51.3413 40.3027 51.3542 40.3027C51.3671 40.3027 51.3671 40.2914 51.3801 40.2914C51.8326 40.0649 51.5998 40.1215 51.9877 39.9291C52.3109 39.7705 52.0653 39.7705 52.2721 39.68L52.3885 39.6347C52.4014 39.6347 52.4014 39.6234 52.4143 39.6234C52.6212 39.5101 52.5436 39.4422 52.841 39.3969C52.8668 39.2497 52.8927 39.2157 52.9961 39.1365C53.5262 38.7289 53.4486 38.6949 53.6037 38.5703C53.8106 38.4005 53.7718 38.2193 53.914 38.0948C54.1209 37.925 53.9916 37.9929 54.0821 37.8457C54.1338 37.7438 54.1726 37.823 54.2114 37.5513C54.2889 37.5173 54.2372 37.4834 54.3148 37.3815C54.4053 37.2569 54.4182 37.3475 54.4311 37.1437L54.5863 37.1097C54.5992 36.9739 54.638 36.9965 54.6251 36.8946C54.6121 36.7247 54.638 36.6455 54.7285 36.5096L54.9871 36.1699C55.0517 35.9888 54.9871 35.8189 55.1551 35.6944C55.5171 35.4453 55.4008 35.2188 55.5042 34.9131C55.543 34.7773 55.5818 34.6867 55.711 34.5961C55.8533 34.5168 55.8274 34.4715 55.892 34.347C55.9955 34.1658 55.9955 33.8714 56.0084 33.6337C56.0084 33.6337 55.9308 33.6563 56.086 33.6563C56.2799 33.645 56.2282 33.5544 56.2928 33.4412L56.4221 33.1808C56.448 33.1015 56.435 33.0789 56.448 32.9883C56.4738 32.8184 56.4609 33.0222 56.4997 32.8411C56.5255 32.7392 56.5126 32.5467 56.5126 32.4448C56.5385 32.4901 56.5772 32.5693 56.6031 32.4901C56.616 32.4901 56.616 32.4788 56.616 32.4674L56.81 32.0145C56.8617 31.9239 56.8229 31.7881 56.8487 31.6862C56.8875 31.4937 57.1073 31.4484 57.1461 31.1427C57.159 31.0068 57.2107 30.5992 57.2754 30.486C57.3012 30.452 57.2754 30.486 57.3271 30.4294L57.34 30.418L57.4047 30.3161C57.4952 30.1236 57.5339 29.365 57.5469 29.1386C57.7796 29.082 57.6632 29.1159 57.7279 28.8102C57.7537 28.697 57.7666 28.6743 57.7796 28.5724L57.8442 28.4592C57.8442 28.3233 57.8184 27.961 57.8571 27.8365C57.8701 27.7685 57.9089 27.8025 57.9735 27.7346C57.9735 27.576 57.9735 27.4175 57.9735 27.259C57.9735 26.908 58.0381 27.1231 58.0511 26.8401C58.1545 26.8174 58.1157 26.8288 58.1804 26.7608C58.0899 26.7042 58.1157 26.7268 58.1157 26.5797C58.1157 26.3759 58.1416 26.2513 58.2062 26.0701C58.3355 25.7418 58.1804 26.2513 58.245 25.9796C58.3484 25.5719 58.2967 25.0171 58.2967 24.5755C58.2967 24.3831 58.2579 24.3038 58.2579 24.134C58.2579 23.9641 58.2967 23.8849 58.2967 23.6811C58.2967 23.5225 58.2967 23.364 58.2967 23.2055C58.245 23.2395 58.3355 23.2395 58.4001 23.2395L58.4131 22.7866C58.5682 22.7073 58.5036 22.8092 58.5811 22.6167L59.3568 21.7109C59.4344 21.6543 59.5637 21.6317 59.6283 21.5637L60.042 21.0882C60.0808 21.0316 60.0808 21.0316 60.1067 20.9976C60.1067 20.9976 60.1196 20.9863 60.1196 20.9749L60.2489 20.7938C60.2489 20.7825 60.2489 20.7825 60.2618 20.7711L60.2877 20.7258C60.3265 20.6692 60.2618 20.7258 60.3135 20.6692L60.8436 20.3409C61.0246 20.1824 61.1021 20.2277 61.4383 20.239C61.4771 20.2956 61.4383 20.2956 61.4771 20.3635C61.5546 20.5107 61.5029 20.3862 61.5676 20.4654L61.6839 20.6239C61.8003 20.7598 61.671 20.556 61.7227 20.6692C61.7874 20.9749 61.7227 21.4845 61.7356 21.8355C61.7486 22.0393 61.8003 22.1638 61.8003 22.4016C61.8132 22.696 61.8003 23.1489 61.852 23.432C61.8778 23.5792 61.8649 23.432 61.8908 23.5452C61.9166 23.6471 61.8908 23.7377 61.9166 23.8283C61.9425 24.0207 61.9683 23.8283 62.0071 24.0434C62.0459 24.2359 61.9037 25.0058 62.1881 25.119V24.8699C62.2011 25.0511 62.2011 25.2209 62.2398 25.3795C62.2657 25.4814 62.3045 25.504 62.3433 25.538L62.5113 26.0135C62.5501 26.24 62.6148 26.4891 62.6148 26.7268C62.6277 26.7268 62.6406 26.7382 62.6406 26.7382L62.6923 26.7608C62.7311 26.7835 62.7053 26.7608 62.757 26.7835V27.0552C62.9638 27.1231 62.7311 27.0212 62.8475 27.0552C62.8604 27.1798 62.8604 27.293 62.8863 27.3949C62.9509 27.6213 62.9638 27.4968 62.9897 27.4968C62.9897 27.576 62.9768 27.6553 63.0026 27.7346L63.0672 27.8818C63.0931 27.9837 63.119 28.1082 63.1319 28.2441C63.1965 28.7196 63.3387 28.7536 63.3646 28.9234L63.4034 28.7876C63.4422 28.8668 63.468 28.9914 63.4939 29.1046C63.5456 29.3424 63.4939 29.2065 63.6232 29.3424C63.8171 29.5349 63.7395 29.6821 63.843 29.8632C63.9593 30.0444 64.1274 30.2142 64.2696 30.3841C64.2825 30.3954 64.3084 30.4294 64.3084 30.4407C64.3989 30.5539 64.3859 30.6671 64.3859 30.8143C64.3989 30.8143 64.4118 30.8143 64.4118 30.8257L64.6574 31.2106C64.7479 31.3352 64.7221 31.5503 64.8384 31.6409C64.9806 31.7541 65.0841 31.7881 65.1487 31.9692C65.2263 32.1844 65.3168 32.173 65.3426 32.3995C65.4719 32.4335 65.5236 32.4901 65.64 32.5354C65.64 32.6826 65.6271 32.6712 65.6917 32.7731C65.7305 32.8637 65.6917 32.8184 65.7563 32.875L66.1183 33.3959L66.1442 33.4185C66.2347 33.5091 66.2476 33.5657 66.3123 33.6676C66.3769 33.7582 66.4028 33.7469 66.4803 33.8148C66.5708 33.8941 66.6096 34.0073 66.7001 34.0979C66.8811 34.2791 66.894 34.4489 67.0233 34.5621L67.256 34.7546C67.2948 34.8112 67.3077 34.8565 67.3595 34.9018L67.5146 34.9358C67.5405 35.1962 67.5792 35.0263 67.6827 35.1735C67.7732 35.2868 67.7085 35.3434 67.8637 35.4226C68.1093 35.5359 67.9542 35.3887 68.0576 35.6265C68.1222 35.785 68.1998 35.6717 68.3679 35.8982C68.4196 35.9775 68.4325 36.0794 68.5101 36.1586C68.6006 36.2718 68.6523 36.2266 68.7299 36.3624C68.7945 36.4643 68.6781 36.3737 68.8074 36.4643C68.8979 36.5436 68.7169 36.3964 68.8591 36.4983L69.0013 36.6455C69.0531 36.5776 69.0272 36.5889 69.0401 36.4983L69.1953 36.6681C69.2599 36.7247 69.2728 36.7134 69.3116 36.8153C69.3246 36.838 69.3246 36.8606 69.3375 36.8833C69.3633 36.9512 69.3246 36.9399 69.4151 36.9739L69.4668 36.9965L69.5573 37.0305C69.5573 37.0418 69.5702 37.0418 69.5702 37.0418L69.6995 37.2003C69.7512 37.3135 69.777 37.3135 69.9322 37.3249L69.9839 37.4607C70.0227 37.54 70.1132 37.5966 70.1649 37.6306L70.32 37.823C70.3976 37.9023 70.32 37.8344 70.4235 37.8797C70.6045 37.9702 70.501 38.0269 70.695 38.1288L70.7725 38.174C70.7855 38.174 70.7855 38.1854 70.7855 38.1854C70.863 38.2533 70.8889 38.3326 71.0052 38.3892C71.2638 39.3969 78.5424 43.8014 79.9775 44.4355C80.1197 44.5034 80.2231 44.5714 80.3653 44.594C80.3783 44.2656 80.3912 44.1864 80.0551 44.0732C79.0337 43.7108 71.225 38.5364 70.7467 37.5966C70.6303 37.3701 70.6045 37.4607 70.4881 37.2909L70.4493 37.2343C70.3847 37.155 70.3071 37.1324 70.2295 37.0644C70.2166 37.0644 70.2037 37.0418 70.1908 37.0418L69.6736 36.487C69.6607 36.4757 69.609 36.419 69.609 36.419L69.4797 36.2718C69.3116 36.136 69.3892 36.0454 69.2599 35.9208L69.1306 35.8303C68.8591 35.6491 68.9108 35.5359 68.7816 35.4113L68.5876 35.2528C68.4196 35.083 68.4584 35.0603 68.342 34.9018C68.3032 34.8565 68.3161 34.8678 68.2903 34.8452C68.2386 34.7659 68.1998 34.698 68.1093 34.6301L67.6439 34.1092C67.5792 34.03 67.6051 33.9507 67.4629 33.7922L67.2431 33.4978C67.2043 33.4299 67.2172 33.4638 67.1655 33.3959C67.075 33.2827 67.0362 33.1581 66.9328 33.0336L66.7906 32.8637C66.6872 32.7731 66.726 32.626 66.532 32.3995L66.4545 32.3202C66.183 31.9579 66.4674 32.1617 66.17 32.0259L66.0278 31.5503C65.9503 31.3805 65.9503 31.4144 65.8339 31.3125L65.7563 31.2333C65.7046 31.2899 65.7305 31.3238 65.6271 31.3238C65.5624 31.188 65.5883 31.0408 65.5495 30.9162C65.5366 30.8596 65.5236 30.8596 65.5107 30.8257L65.4073 30.5539C65.2263 30.1803 65.3426 30.4633 65.2004 30.2369C65.1099 30.101 65.1358 29.8859 65.0711 29.716C64.9677 29.4443 64.9677 29.5802 64.8514 29.0706C64.7996 28.9008 64.7479 28.7989 64.6187 28.6743C64.5799 28.6404 64.5928 28.6517 64.554 28.6291L64.4247 28.5724C64.4247 28.4139 64.4506 28.2214 64.3989 28.0742C64.3989 28.0629 64.3859 28.0629 64.3859 28.0516L64.2567 27.6893C64.2049 27.576 64.2049 27.3836 64.1662 27.259C64.1015 27.0778 64.0886 27.0552 64.0886 26.8174C64.0757 26.5117 64.0627 26.591 63.9722 26.3985L63.7654 25.0851H63.7137C63.6878 24.6888 63.5844 24.1566 63.5973 23.7377C63.5973 23.6584 63.6232 23.5112 63.5844 23.4659C63.5844 23.4546 63.5585 23.4433 63.5585 23.432C63.4163 23.2395 63.4293 21.2354 63.5068 20.7032C63.5327 20.5107 63.5327 20.6919 63.5585 20.522C63.6102 20.171 63.5327 18.9822 63.7137 18.5519L63.8042 18.1896C63.8171 18.0764 63.83 17.8612 63.8817 17.7706C63.9205 17.6801 63.9205 17.8159 63.9464 17.6008C63.9593 17.4196 64.011 17.397 64.0886 17.2498C64.1403 17.1479 64.1144 17.1705 64.192 17.0913L64.2049 17.08L64.554 16.729C64.6833 16.5365 64.6704 16.5818 64.7867 16.4572L65.1487 16.1628C65.2909 16.0722 65.2521 16.1175 65.3168 16.0496C65.3944 15.9477 65.4331 15.8231 65.5236 15.7326C65.7046 15.5627 65.6012 15.7552 65.9115 15.3476C65.9891 15.2457 66.2605 15.0306 66.5062 14.7022C66.5062 14.6909 66.5062 14.6909 66.5191 14.6796L66.7647 14.4531C66.9975 14.3059 67.0104 14.3286 67.1397 14.1021C67.2172 14.0002 67.3207 13.9549 67.4241 13.8643C67.4241 13.853 67.437 13.853 67.437 13.853L67.8637 13.4454C67.9154 13.3775 67.9154 13.2416 67.9542 13.1736L68.3679 12.834C68.4196 12.8 68.4454 12.7774 68.4842 12.7094C68.5359 12.6528 68.5618 12.6188 68.6006 12.5735C68.7169 12.415 68.8591 12.2792 69.0272 12.1433C69.066 12.1093 69.066 12.1093 69.0918 12.0753C69.1436 12.0301 69.1436 12.0074 69.1823 11.9282C69.2341 11.8376 69.2858 11.8149 69.3633 11.747C69.4409 11.6791 69.3633 11.781 69.428 11.6791C69.6736 11.3167 69.7124 11.4413 69.777 11.2828L70.2425 10.7506C70.3976 10.6713 70.4752 10.4675 70.6045 10.3543C70.7337 10.2524 70.8242 10.0826 70.9535 9.96933C70.9794 9.94669 70.9923 9.93537 71.0052 9.91272L71.057 9.83346C71.1733 9.66362 71.2638 9.61833 71.3802 9.42584C71.4189 9.36923 71.4448 9.33527 71.4836 9.27865L71.8585 8.76913C71.949 8.63326 71.9361 8.66723 72.0395 8.58797L72.1559 8.46342C72.2334 8.38416 72.2205 8.42945 72.2593 8.32755C72.3368 8.15771 72.4661 8.04448 72.5308 7.87464C72.5437 7.82935 72.5308 7.84067 72.5696 7.78406L72.6859 7.67084C72.8669 7.55761 72.5437 7.73877 72.7376 7.64819C72.854 7.6029 72.7893 7.64819 72.854 7.47835L72.9445 7.31983C73.0221 7.21793 73.035 7.05941 73.0996 6.95751L73.2289 6.71973C73.2677 6.64047 73.2289 6.71973 73.2677 6.64047L73.4487 6.31212L73.4616 6.30079C73.565 6.1536 73.6814 6.14228 73.759 5.98376L73.8753 5.5535C73.9012 5.4516 73.8882 5.50821 73.9141 5.46292L73.9529 5.41763C74.0305 5.25911 74.108 5.12324 74.108 4.9534C74.1468 4.9534 74.1856 4.94208 74.2115 4.93075C74.4054 4.82885 74.3924 4.43256 74.5088 4.26272C74.5864 4.12685 74.5088 4.33065 74.5864 4.11552L74.651 3.96833C74.6639 3.92304 74.6639 3.88907 74.6769 3.82113C74.7157 3.58336 74.7803 3.33426 74.8062 3.10781C74.8708 2.77945 74.832 1.89628 74.7286 1.59057C74.651 1.37544 74.5476 1.44338 74.4312 1.23957C74.4054 1.19428 74.4183 1.22825 74.3924 1.18296L74.3537 1.12634C74.1727 0.877245 74.0951 0.911213 73.8753 0.741373C73.6297 0.560211 72.9315 0.628147 72.6342 0.662115C72.5178 0.673437 72.5437 0.662115 72.4532 0.707405C72.3498 0.775341 72.4532 0.752696 72.2981 0.775341C72.13 0.809309 72.1041 0.843277 71.9749 0.933858L71.8456 1.01312C71.7551 1.06973 71.7292 1.14899 71.5999 1.18296C71.4319 1.22825 71.4189 1.25089 71.2897 1.33015C71.2379 1.3528 71.1992 1.37544 71.1604 1.42073L70.8372 1.76041C70.6432 1.89628 70.4752 1.89628 70.2425 2.19067L69.9968 2.46242C69.8546 2.58696 69.9193 2.46242 69.4797 2.89268L69.3246 3.06252C69.247 3.1531 69.2599 3.19839 69.1953 3.26632C69.0789 3.41352 69.0401 3.39087 69.0272 3.606C68.885 3.62865 68.5747 3.90039 68.5101 4.01362L68.4454 4.1042C68.4325 4.12685 68.4066 4.18346 68.4066 4.19478C68.2644 4.52314 68.1739 4.50049 67.9671 4.68165L67.5663 5.15721C67.5017 5.31572 67.4241 5.36101 67.3336 5.51953L67.1914 5.68937C67.088 5.81392 67.075 5.99508 66.9975 6.09699C66.907 6.23286 66.9587 6.11963 66.8294 6.21021C66.8165 6.57254 66.8294 6.2555 66.713 6.5046C66.6613 6.62915 66.6743 6.64047 66.5708 6.74238C66.4545 6.86693 66.5062 6.93486 66.351 7.08206C66.2088 7.20661 66.2347 7.20661 66.2218 7.43306C66.0666 7.50099 66.1442 7.42174 66.0537 7.56893L65.4331 8.50871C65.4202 8.53136 65.4202 8.53136 65.4073 8.554C65.3038 8.7012 65.2521 8.74649 65.2134 8.96162C65.1875 9.14278 65.1099 9.16543 64.9936 9.3013C64.9548 9.35791 64.9419 9.4032 64.8901 9.47114L64.8643 9.52775L64.8255 9.56172C64.8255 9.57304 64.8255 9.57304 64.8126 9.58436C64.8126 9.58436 64.8126 9.59569 64.7996 9.60701C64.7092 9.73156 64.6704 9.89008 64.5411 10.0033L64.4635 10.0599C64.2954 10.1958 64.3213 10.4902 64.2179 10.6713C64.2179 10.6827 64.2179 10.6827 64.2049 10.694C63.9722 11.045 64.1791 10.7166 64.0498 10.9997L63.7525 11.5432C63.6878 11.6451 63.7266 11.747 63.6232 11.9055C63.4293 12.1773 63.468 12.5622 63.3 12.8453C63.0802 13.1963 63.2224 13.2189 63.1578 13.3888C63.106 13.4567 63.0931 13.4454 63.0672 13.4794L63.0026 13.5699C62.9121 13.7058 62.9638 13.6152 62.938 13.8077C62.9121 14.0342 62.8992 13.8983 62.8216 14.0342C62.7311 14.17 62.6665 14.6229 62.6406 14.7928C62.6148 15.0079 62.5501 15.0306 62.5372 15.3363L62.4079 15.3929C62.395 15.5514 62.3821 15.642 62.3562 15.7779C62.2657 16.2761 62.3303 15.959 62.2398 16.2647C62.1881 16.4119 62.1881 16.4572 62.1106 16.5478L62.0588 16.6271C62.033 16.661 62.033 16.6723 62.0201 16.6837C61.9683 16.7629 61.9037 16.8648 61.8132 16.9214C61.6969 16.9894 61.7615 16.9101 61.671 17.0007C61.6322 17.046 61.6451 17.0686 61.5934 17.1139C61.5029 17.2272 61.4512 17.2045 61.3478 17.3177L61.2185 17.4989C61.2185 17.4989 61.2185 17.5102 61.2056 17.5215L61.0634 17.714C61.0504 17.7253 61.0504 17.7253 61.0375 17.7367C61.0375 17.7367 61.0375 17.748 61.0246 17.748L60.7143 17.9518C60.6109 18.0084 60.6109 18.1443 60.5462 18.2235C60.4299 18.3594 60.4299 18.3821 60.2618 18.484L60.0679 18.6198C59.9386 18.6991 60.0808 18.6312 59.9257 18.6991C59.7317 18.7784 59.7576 18.8916 59.6154 19.0161L59.0853 19.5709C58.9302 19.7068 58.9819 19.7974 58.6716 19.7974C58.5036 19.8087 58.4131 19.7974 58.2708 19.7634C58.0899 19.7181 58.1933 19.7521 58.1286 19.6842C57.8701 19.4011 57.9994 19.1407 57.8959 18.8803L57.8184 18.7444C57.7796 18.6538 57.7925 18.5745 57.7408 18.4953C57.702 18.4387 57.6244 18.416 57.5856 18.3481C57.521 18.2235 57.5986 18.0197 57.521 17.8839C57.4564 17.782 57.4434 17.8499 57.4047 17.7027C57.3529 17.4989 57.3271 17.2272 57.2495 17.0347C57.159 16.8195 57.1202 16.4459 56.9263 16.2874L56.797 16.2308C56.797 16.0722 56.7712 15.9137 56.6936 15.8118L56.616 15.7326C56.5126 15.6307 56.5514 15.4835 56.4221 15.3589L56.3445 15.3136C56.2928 15.2797 56.3445 15.2797 56.2411 15.2457C56.2282 15.0532 56.2023 14.8607 56.073 14.7135L55.9696 14.5437C55.905 14.4191 55.905 14.4984 55.8403 14.3852C55.6593 14.0342 55.6205 14.2493 55.5688 13.8077C55.5171 13.3775 55.181 13.468 55.0517 13.1623C55.0388 13.117 55.0517 13.1284 55.0259 13.0717L54.9354 12.8453C54.8966 12.7547 54.819 12.7207 54.7285 12.6641C54.5863 12.5735 54.6121 12.5396 54.5863 12.3697C54.5475 12.1999 54.5863 12.3018 54.5216 12.2339L54.276 11.9395C54.2372 11.9055 54.2631 11.9395 54.2243 11.8942C54.095 11.747 54.1855 11.6791 53.9916 11.4979L53.7589 11.3281C53.5132 11.1922 53.5779 11.0676 53.3969 10.8525C53.2676 10.694 53.0995 10.5015 52.9315 10.377C52.828 10.2977 52.7763 10.1958 52.6988 10.1278L52.5178 9.98066C52.4531 9.91272 52.5178 9.92404 52.4014 9.84478C52.2721 9.7542 52.2721 9.70891 52.1428 9.59569L51.7808 9.25601C51.6903 9.18807 51.6774 9.09749 51.5611 8.99559C51.5611 8.99559 51.5611 8.98426 51.5481 8.98426L51.3154 8.82574C51.1861 8.75781 51.1344 8.63326 51.0439 8.554L50.9534 8.40681C50.9276 8.36152 50.9405 8.40681 50.9405 8.35019ZM58.3355 7.21793L58.3096 7.51232C58.0899 7.62555 58.1157 7.54629 58.0511 7.80671C58.0252 7.91993 58.0769 7.82935 57.9735 7.90861C57.7925 8.05581 57.883 8.27094 57.7796 8.46342C57.7666 8.47474 57.7666 8.47474 57.7666 8.48607C57.7537 8.48607 57.7408 8.50871 57.7408 8.52003C57.6503 8.62194 57.5339 8.65591 57.5339 8.66723L57.3529 8.85971C57.2366 9.01823 57.2366 10.9544 57.2754 11.2148C57.2883 11.3507 57.3012 11.5205 57.3142 11.6904C57.34 11.9621 57.3659 11.9168 57.6503 11.9395C57.6503 12.0414 57.7149 12.132 57.7537 12.2225C57.8054 12.3131 57.883 12.3471 57.9606 12.4377C58.1286 12.6075 58.2321 12.6868 58.5682 12.7094C58.6587 12.8566 58.5294 12.6754 58.5682 12.7887C58.8138 12.8 59.1888 12.8566 59.4085 12.7434L60.0937 12.3471C60.2747 12.2225 60.3523 12.0187 60.5204 11.8489C60.6367 11.7357 60.5979 11.6111 60.7143 11.4866L60.9341 11.1922C60.9858 11.0337 60.9987 10.8412 61.0892 10.6147L61.2573 10.1392C61.309 10.1845 61.2961 10.0712 61.309 10.2411C61.3736 9.57304 61.4254 9.53907 61.3736 8.76913C61.3607 8.76913 61.4254 8.67855 61.3736 8.79178L61.3478 8.83707C61.3478 8.84839 61.3349 8.85971 61.3349 8.85971C61.3219 8.76913 61.3219 8.82574 61.309 8.75781L61.2185 8.4521C61.2056 8.44077 61.2056 8.44077 61.2056 8.42945L61.1539 8.14639C61.128 8.04448 61.1539 8.1011 61.1151 8.03316L60.9858 7.81803C60.9858 7.80671 60.9858 7.80671 60.9729 7.79538C60.9729 7.78406 60.9729 7.78406 60.9599 7.77274L60.8824 7.63687C60.7789 7.50099 60.7919 7.29719 60.6755 7.19528C60.5592 7.1047 60.5462 7.11602 60.3782 7.09338C60.1713 7.07073 60.3006 7.04809 60.1067 7.02544C59.9386 7.0028 59.6154 7.0028 59.4603 6.99148C58.9948 6.95751 58.8268 7.02544 58.4518 7.17264L58.4001 7.19528C58.4001 7.19528 58.3872 7.19528 58.3743 7.19528L58.3355 7.21793ZM53.384 27.927C53.3452 27.7232 53.6684 27.5987 53.7589 27.4402C53.8623 27.2703 53.7847 27.327 53.9399 27.2364C54.0304 27.1911 53.9787 27.1798 54.0821 27.1118C54.2114 27.0326 54.1467 27.1911 54.3536 26.9646L54.3665 26.9533C54.5216 26.7835 54.5734 26.5004 54.8319 26.3645C55.0388 26.2513 54.9483 26.2626 55.0646 26.1268L55.1163 26.0815C55.1163 26.0815 55.1293 26.0815 55.1293 26.0701C55.1422 26.0701 55.1422 26.0588 55.1551 26.0588C55.2586 25.9682 55.362 25.8324 55.4913 25.7531L55.724 25.5719C55.7757 25.538 55.8274 25.4474 56.1506 25.504C56.2282 25.5153 56.1894 25.5153 56.2411 25.538C56.4997 25.6738 56.5255 26.0588 56.4092 26.2739C56.267 26.557 56.3187 26.942 56.267 27.0892L56.1894 27.3836C56.1765 27.5081 56.2023 27.6327 56.1248 27.7459C55.9438 27.995 55.9825 28.4479 55.9179 28.7536C55.892 28.8668 55.8403 28.7649 55.7757 28.9008L55.711 29.2292C55.6205 29.4783 55.6593 29.784 55.5171 30.1689C55.4913 30.2369 55.5042 30.2369 55.4913 30.2935L55.4396 30.3954C55.4396 30.4067 55.4266 30.4067 55.4266 30.418C55.3232 30.5313 55.3103 30.6332 55.2586 30.769C55.2586 30.7804 55.2586 30.7917 55.2586 30.803L54.8966 31.7315C54.8578 31.7994 54.7931 31.9806 54.7802 32.2183C54.7156 32.2523 54.7285 32.2297 54.6639 32.2863C54.6639 32.2863 54.6509 32.2863 54.6509 32.2976L54.4958 32.5127C54.3406 32.8298 54.4829 32.8524 54.4958 32.9656C54.5216 33.1581 54.4441 32.909 54.457 33.1128C54.4699 33.3166 54.4699 33.0675 54.5346 33.226C54.3794 33.4299 54.5346 33.4072 54.276 33.5771C54.1855 33.645 54.1984 33.7129 54.1467 33.8035L54.1338 33.8488C54.0821 33.8941 54.0304 33.9054 53.9657 33.9394C53.9657 33.9847 53.9657 34.0526 53.9657 34.0979C53.9399 34.2791 53.9528 34.1545 53.9011 34.2111C53.8235 34.3243 53.8106 34.4602 53.7718 34.5734L53.733 34.6414C53.7201 34.6527 53.7201 34.6754 53.7072 34.698L53.6813 34.7659C53.5908 34.9697 53.4615 35.1056 53.371 35.2981C53.3452 35.3547 53.371 35.2981 53.3322 35.3547C53.2417 35.4793 53.2676 35.4679 53.2159 35.6038C53.2159 35.6151 53.203 35.6265 53.203 35.6265L53.1642 35.717C53.1383 35.7737 53.1771 35.717 53.1254 35.7737L53.0737 35.8303C53.0607 35.8416 53.0607 35.8416 53.0478 35.8529L52.8022 36.136C52.7246 36.2379 52.6988 36.3851 52.6212 36.487C52.5695 36.5776 52.5565 36.6342 52.4531 36.6908C52.2463 36.8153 52.4143 36.8946 52.1299 37.1324C52.0135 37.2229 52.117 37.1324 52.0523 37.2456C51.9618 37.3928 51.9231 37.3135 51.8584 37.4154C51.755 37.4607 51.7421 37.574 51.6774 37.6079C51.6645 37.6192 51.6645 37.6192 51.6516 37.6192L51.1344 38.2307C51.1215 38.2307 51.1215 38.242 51.1086 38.242C51.0956 38.2873 51.0698 38.3439 51.0569 38.3779C50.9922 38.4911 50.9793 38.4118 50.8241 38.5477L50.4751 38.8534L50.4622 38.8647C50.3975 38.944 50.3458 39.0006 50.3329 39.1025C50.1907 39.1138 50.0743 39.1818 49.9838 39.2384L49.5701 39.4875C49.4408 39.5667 49.6606 39.4762 49.4925 39.5214C49.4279 39.5441 49.2857 39.6234 49.1435 39.6234C48.9754 39.612 48.8203 39.5441 48.6522 39.5214C48.6263 39.3969 48.6393 39.4422 48.5746 39.3516C48.2643 38.9893 48.4195 38.6949 48.2902 38.3213C48.2256 38.174 48.2514 38.0269 48.2514 37.8457C48.2514 37.5626 48.4324 36.1473 48.4841 36.0114C48.6005 35.7623 48.6005 35.6604 48.6522 35.4C48.691 35.2415 48.691 35.3094 48.7298 35.2075C48.7556 35.1509 48.8332 34.7206 49.0142 34.4036L49.1047 34.2451C49.1564 34.1772 49.1564 34.1545 49.1823 34.0413C49.2469 33.7695 49.3115 33.6337 49.4408 33.4072C49.5055 33.294 49.4537 33.3959 49.5055 33.3166C49.6735 33.1128 49.6477 32.8637 49.8416 32.7052L49.8545 32.6939L49.9062 32.626C50.0484 32.3882 50.1777 32.2636 50.4104 31.9013L50.85 31.2786C50.8629 31.2672 50.8629 31.2672 50.8629 31.2559L51.2379 30.7577C51.2508 30.7464 51.3025 30.6898 51.3025 30.6898C51.4059 30.5879 51.4447 30.452 51.5093 30.3388C51.5352 30.3048 51.5352 30.3048 51.5611 30.2595L51.6645 30.0784C51.7162 29.9651 51.7938 29.9991 51.9489 29.8179C51.9748 29.7953 51.9877 29.784 52.0265 29.7613L52.1945 29.5235C52.2721 29.365 52.2592 29.2971 52.4143 29.1839L52.6729 28.9008C52.7763 28.697 52.7634 28.7423 52.9444 28.6177C52.9961 28.5838 53.3064 28.1875 53.3452 28.0742C53.384 27.9723 53.3581 28.0403 53.384 27.927ZM66.1959 11.8149C66.7518 11.8149 66.6225 11.8376 66.6872 11.7243C66.7389 11.6224 66.7906 11.5998 66.894 11.5319C67.2172 11.3507 67.1526 11.1922 67.3982 11.045C67.437 11.011 67.4112 11.0337 67.4499 10.9997C67.5017 10.9544 67.4499 10.9884 67.4887 10.9657C67.4887 10.9657 67.4887 10.9544 67.5017 10.9431L67.7602 10.6374C67.7602 10.626 67.7861 10.6147 67.7861 10.6034L68.0317 10.3656C68.0317 10.3656 68.0447 10.3543 68.0447 10.343C68.0964 10.275 68.161 10.1618 68.2386 10.1052C68.342 10.0259 68.3808 9.93537 68.4584 9.84478L68.4713 9.83346C68.4842 9.82214 68.4971 9.79949 68.4971 9.79949L68.6523 9.68627C68.7428 9.60701 68.7557 9.47114 68.8462 9.38056C68.8462 9.38056 68.8721 9.35791 68.885 9.35791C68.885 9.34659 68.8979 9.34659 68.8979 9.34659C68.8979 9.33527 68.9108 9.33527 68.9108 9.33527C68.9238 9.32394 68.9367 9.32394 68.9367 9.31262C69.0789 9.22204 69.0918 9.08617 69.1694 9.04088C69.2599 8.98426 69.2082 9.02955 69.2858 8.99559L69.4151 8.89368C69.4797 8.84839 69.5314 8.83707 69.5831 8.78046L69.8546 8.32755L69.8675 8.31623C70.0227 8.13506 70.1132 8.18035 70.152 8.03316C70.2037 7.89729 70.1908 7.79538 70.2683 7.68216C70.2812 7.65951 70.32 7.63687 70.32 7.63687L70.3847 7.54629C70.4881 7.44438 70.501 7.47835 70.5657 7.31983C70.6174 7.20661 70.6691 7.19528 70.7467 7.11602L70.7855 7.08206C70.863 6.98015 70.8501 6.90089 70.9018 6.79899C70.9535 6.67444 70.9794 6.70841 71.0828 6.62915C71.1733 6.54989 71.2509 6.41402 71.3026 6.31212C71.3543 6.21021 71.3672 6.1536 71.4965 6.11963C71.5094 6.02905 71.4965 6.01773 71.5353 5.94979C71.6517 5.79128 71.5353 5.97244 71.6258 5.9045L71.7939 5.5535L71.8068 5.51953C71.8326 5.49689 71.8326 5.48556 71.8585 5.46292L72.1041 5.22514C72.1041 5.04398 72.13 4.68165 72.2205 4.55711L72.4403 4.08155C72.5049 3.88907 72.5049 3.68526 72.492 3.49278C72.4791 3.31161 72.5049 3.39087 72.4015 3.31161L72.3239 3.255C72.0007 3.07384 71.9231 3.32294 71.8197 3.39087L71.7034 3.44749L71.6904 3.45881L71.5741 3.53807C71.5741 3.54939 71.5482 3.56071 71.5353 3.57204C71.3931 3.66262 71.4189 3.71923 71.3026 3.84378L71.1733 3.96833C70.8889 4.26272 70.8113 4.2061 70.682 4.46653C70.6432 4.55711 70.6303 4.63636 70.5527 4.7043L70.2554 4.9534C70.2554 4.9534 70.2295 4.97604 70.2166 4.98737L70.1132 5.13456L70.1003 5.14588C70.1003 5.15721 70.0873 5.15721 70.0873 5.16853L70.0744 5.17985L69.4797 5.93847C69.247 6.27815 69.1436 6.17625 68.8721 6.64047C68.6523 7.04809 68.8979 6.74238 68.6006 7.04809C68.4971 7.13867 68.4971 7.31983 68.4196 7.44438L68.3679 7.50099C68.3679 7.51232 68.3549 7.51232 68.3549 7.52364C68.1222 7.7048 68.2644 7.67084 68.1481 7.86332L68.1222 7.89729C68.1222 7.89729 68.1222 7.90861 68.1093 7.90861C68.0188 8.02184 67.9671 7.99919 67.8895 8.13506C67.7861 8.35019 67.7344 8.28226 67.5663 8.63326C67.5146 8.73516 67.5146 8.68987 67.4629 8.81442C67.2948 9.27865 67.437 8.93897 67.2043 9.19939L67.0492 9.45981C67.0104 9.58436 66.9975 9.62965 66.907 9.72023L66.7389 9.95801L66.6484 10.3996C66.6484 10.4336 66.6355 10.4562 66.6225 10.4789L66.5967 10.5128C66.17 10.9657 66.3898 10.9091 66.2476 11.3281C66.17 11.5772 66.17 11.3281 66.1959 11.8149Z" fill="url(#paint0_linear_2016_283)"/>
</g>
<path d="M6.358 66.896H0L3.74 41.77H10.098L8.67 51.358H17.476L18.904 41.77H25.296L21.556 66.896H15.164L16.558 57.444H7.752L6.358 66.896Z" fill="#36127E"/>
<path d="M32.0753 46.462C31.0553 46.462 30.2393 46.122 29.6273 45.442C29.0153 44.7393 28.7886 43.8667 28.9473 42.824C29.1059 41.8947 29.5366 41.124 30.2393 40.512C30.9646 39.9 31.792 39.594 32.7213 39.594C33.7413 39.594 34.5459 39.9453 35.1353 40.648C35.7473 41.328 35.9739 42.178 35.8153 43.198C35.6793 44.1273 35.2486 44.9093 34.5233 45.544C33.8206 46.156 33.0046 46.462 32.0753 46.462ZM34.7273 48.128L31.9393 66.896H25.9213L28.7093 48.128H34.7273Z" fill="#36127E"/>
<path d="M41.697 66.896H35.713L38.501 48.128H44.281L43.907 50.372C45.335 48.536 47.069 47.618 49.109 47.618C50.061 47.618 51.047 47.7993 52.067 48.162L50.503 53.806C49.755 53.534 48.9844 53.398 48.191 53.398C46.8083 53.398 45.641 53.874 44.689 54.826C43.737 55.7553 43.125 57.1833 42.853 59.11L41.697 66.896Z" fill="#36127E"/>
<path d="M60.3048 67.406C57.1995 67.406 54.8195 66.4087 53.1648 64.414C51.5102 62.4193 50.9208 59.9827 51.3968 57.104C51.8728 54.3613 53.1875 52.0833 55.3408 50.27C57.4715 48.4793 59.9762 47.584 62.8548 47.584C66.0508 47.584 68.4648 48.6493 70.0968 50.78C71.7515 52.9107 72.2388 55.4833 71.5588 58.498C70.9922 61.15 69.6435 63.3033 67.5128 64.958C65.4048 66.59 63.0022 67.406 60.3048 67.406ZM60.8488 61.762C62.0275 61.762 63.0815 61.354 64.0108 60.538C64.9855 59.722 65.5522 58.736 65.7108 57.58C65.9602 56.356 65.7448 55.3247 65.0648 54.486C64.3848 53.6247 63.4328 53.194 62.2088 53.194C61.0528 53.194 60.0215 53.568 59.1148 54.316C58.2082 55.064 57.6302 56.016 57.3808 57.172C57.0862 58.4187 57.2788 59.5067 57.9588 60.436C58.6388 61.32 59.6022 61.762 60.8488 61.762Z" fill="#36127E"/>
<path d="M85.063 47.652C87.919 47.652 90.1516 48.5247 91.761 50.27C93.3703 52.0153 93.9596 54.3613 93.529 57.308C93.393 58.1693 93.223 58.8833 93.019 59.45H79.487C79.827 61.422 81.1643 62.408 83.499 62.408C85.5843 62.408 87.5903 61.8073 89.517 60.606L91.489 64.822C88.9276 66.4767 86.1056 67.304 83.023 67.304C80.8016 67.304 78.9316 66.828 77.413 65.876C75.8943 64.9013 74.8516 63.666 74.285 62.17C73.7183 60.6513 73.5823 58.9967 73.877 57.206C74.285 54.3273 75.5089 52.0153 77.549 50.27C79.6343 48.5247 82.1389 47.652 85.063 47.652ZM84.825 52.446C82.6489 52.446 81.1076 53.4093 80.201 55.336H88.123C88.0323 54.4293 87.6923 53.7267 87.103 53.228C86.5363 52.7067 85.777 52.446 84.825 52.446Z" fill="#36127E"/>
<path d="M109.397 48.128H116.741L107.493 55.71L114.497 66.896H107.391L102.937 59.45L101.951 60.266L100.965 66.896H94.9806L98.8226 40.954H104.841L102.971 53.568L109.397 48.128Z" fill="#36127E"/>
<defs>
<filter id="filter0_d_2016_283" x="34.3703" y="0.594002" width="48" height="48" filterUnits="userSpaceOnUse" color-interpolation-filters="sRGB">
<feFlood flood-opacity="0" result="BackgroundImageFix"/>
<feColorMatrix in="SourceAlpha" type="matrix" values="0 0 0 0 0 0 0 0 0 0 0 0 0 0 0 0 0 0 127 0" result="hardAlpha"/>
<feOffset dy="2"/>
<feGaussianBlur stdDeviation="1"/>
<feComposite in2="hardAlpha" operator="out"/>
<feColorMatrix type="matrix" values="0 0 0 0 0 0 0 0 0 0 0 0 0 0 0 0 0 0 0.14902 0"/>
<feBlend mode="normal" in2="BackgroundImageFix" result="effect1_dropShadow_2016_283"/>
<feBlend mode="normal" in="SourceGraphic" in2="effect1_dropShadow_2016_283" result="shape"/>
</filter>
<linearGradient id="paint0_linear_2016_283" x1="47.3703" y1="11.594" x2="47.3703" y2="11.594" gradientUnits="userSpaceOnUse">
<stop stop-color="#8C43FE"/>
<stop offset="1" stop-color="#130CB7"/>
</linearGradient>
</defs>
</svg>