<svg width="178" height="68" viewBox="0 0 178 68" fill="none" xmlns="http://www.w3.org/2000/svg">
<g filter="url(#filter0_d_1984_286)">
<path fill-rule="evenodd" clip-rule="evenodd" d="M23.193 11.2817C22.9486 11.2817 23.1178 11.2653 23.0614 11.2323C23.0614 11.2323 22.9674 11.15 22.9486 11.15C22.8733 11.0841 22.7981 11.0512 22.7605 10.9853C22.7417 10.6065 22.6477 10.7382 22.422 10.5736C22.3656 10.5241 22.3092 10.4418 22.234 10.3759L21.9143 10.1783C21.5194 9.93125 21.557 9.78303 21.2749 9.61833L20.8424 9.35483C20.692 9.23954 20.6544 9.12426 20.5039 8.9925C20.3723 8.89368 20.2407 8.82781 20.0902 8.69605L19.4133 8.21844C19.2628 8.11963 18.9243 7.98787 18.8491 7.88906L18.3038 7.37851C18.2286 7.3291 18.1533 7.27969 18.0969 7.23028C17.9277 7.08206 17.4387 6.88443 17.1003 6.65386L16.9874 6.57151C16.4985 6.22566 16.4985 6.37388 15.972 5.89627C15.8403 5.76452 15.4266 5.64923 15.2386 5.55041L14.8625 5.30338C14.8437 5.30338 14.8437 5.28691 14.8249 5.28691C14.6744 5.18809 14.4676 5.13868 14.2983 5.05634C14.2231 4.99046 14.2607 5.0234 14.2043 4.97399C13.659 4.61166 13.753 4.89164 13.3581 4.54579C13.3581 4.52932 13.3393 4.52932 13.3393 4.51285L13.2077 4.41403C13.0008 4.26581 12.888 4.29875 12.7375 4.19993C12.5871 4.11758 12.7187 4.13405 12.5307 4.05171C12.2862 3.91995 11.9101 3.85408 11.7033 3.72232L11.5152 3.63997C11.3084 3.55763 11.346 3.5741 11.1956 3.42587L10.8947 3.22824C10.669 3.06355 10.4434 3.12943 10.0673 2.86592L9.54073 2.58594C9.31507 2.48712 9.10822 2.47065 8.84495 2.45418C8.75093 2.32243 8.90137 2.42125 8.75093 2.28949L8.50646 2.14127C8.43124 2.09186 8.39364 2.04245 8.29961 1.97657C8.14917 1.84482 8.33722 1.92717 8.05515 1.84482C7.64144 1.746 7.4722 1.746 7.17132 1.58131C6.75762 1.3178 6.75762 1.41662 6.3063 1.28486C6.13706 1.23546 5.94901 1.15311 5.74216 1.08723C5.19682 0.906069 5.19682 0.823723 4.51984 0.807253L4.3318 0.593152C4.3318 0.576683 4.31299 0.576683 4.31299 0.560214C4.31299 0.560214 4.29419 0.560214 4.29419 0.543745L3.91809 0.428459C3.91809 0.428459 3.89929 0.41199 3.88048 0.41199L3.73004 0.379051C3.44797 0.329644 3.46678 0.247297 3.12829 0.247297L2.97785 0.000257333C2.62056 0.000257333 2.22566 -0.016212 2 0.214358C2.16924 0.247297 2.05641 0.214358 2.20685 0.296705C2.45132 0.428459 2.3949 0.494337 2.771 0.510806C2.90263 0.790784 2.71458 0.65903 3.12829 0.757846C3.35395 0.807253 3.1847 0.774315 3.35395 0.856661L3.52319 0.922539C3.80526 1.05429 3.74885 0.971947 4.03092 1.03782L4.55745 1.1037L4.65148 1.35074C5.1216 1.36721 5.1404 1.43309 5.49769 1.56484L6.58837 2.09186C6.58837 2.09186 6.60718 2.10833 6.62598 2.10833C6.83284 2.20714 7.11491 2.22361 7.32176 2.28949C7.50981 2.35537 7.73547 2.35537 7.94232 2.42125C8.14917 2.50359 8.03634 2.48712 8.18678 2.61888L8.52527 2.63535C8.56288 2.71769 8.52527 2.73416 8.58168 2.81651L9.18344 3.21177C9.35268 3.36 9.4091 3.32706 9.69117 3.42587C9.8228 3.47528 9.95443 3.49175 10.1049 3.54116C10.2177 3.55763 10.4057 3.5741 10.4998 3.62351L10.7818 3.80467C10.8759 3.88701 10.8571 4.01877 10.9511 4.10112C11.0639 4.18346 11.1956 4.18346 11.3084 4.24934L11.3272 4.26581C11.346 4.28228 11.346 4.28228 11.3648 4.29875C11.3648 4.29875 11.3836 4.29875 11.3836 4.31522C11.534 4.39756 11.5716 4.38109 11.7033 4.46344L12.023 4.62813C12.1546 4.67754 12.1922 4.77636 12.3614 4.8587L12.5871 4.95752C12.6435 4.99046 12.7375 5.03987 12.8128 5.05634C12.9444 5.10574 13.0196 5.08927 13.1324 5.17162C13.3205 5.28691 13.4333 5.41866 13.6214 5.51748C13.753 5.56688 13.6966 5.53394 13.8282 5.61629C14.0727 5.78098 13.8658 5.76452 14.2607 5.78098C14.3736 6.0939 14.4864 6.11037 14.9001 6.24213C15.483 6.42329 14.9377 6.39035 15.4266 6.63739C15.6147 6.71974 15.5019 6.63739 15.5959 6.78561C15.7275 6.96678 15.9344 6.99971 16.1036 7.16441L17.1755 7.92199C17.4011 8.15257 17.7208 8.1361 17.9277 8.33373C18.0405 8.44901 17.9465 8.38314 18.0969 8.49842C18.1533 8.53136 18.2097 8.58077 18.2662 8.6137C18.5294 8.76193 18.5482 8.86075 18.7739 9.02544L19.921 9.94772C20.1654 10.1618 20.4851 10.3759 20.7108 10.6394C21.0869 11.0676 21.0305 10.8535 21.5382 11.2982C21.6698 11.4135 21.7262 11.4794 21.8391 11.5947L22.0835 11.8252C22.0835 11.8417 22.0835 11.8417 22.1023 11.8582L22.4408 12.2864C22.4596 12.2864 22.4596 12.3028 22.4596 12.3193L22.5349 12.4181C22.5913 12.4675 22.6477 12.5005 22.7041 12.5334L23.1742 12.9616C23.3623 13.1922 23.4939 13.1592 23.7007 13.4392L23.9264 13.7686C24.0016 13.8509 23.9264 13.7686 23.9828 13.8509C24.0016 13.8674 24.0392 13.9168 24.0392 13.9333C24.2085 14.1474 24.2085 13.9662 24.3965 14.1803L24.7726 14.5756C24.9231 14.7897 24.9607 14.9873 25.2992 15.0367C25.318 15.2179 25.3556 15.3167 25.4872 15.4485C25.4872 15.4485 25.4872 15.4649 25.506 15.4649L25.7129 15.6626C25.7129 15.679 25.7317 15.679 25.7317 15.6955L25.7693 15.7779C25.7881 15.8273 25.8069 15.8602 25.8257 15.9096C25.9009 16.1072 25.9761 16.2719 26.1454 16.4202L26.5591 16.9142C26.6907 17.1613 26.7659 17.5236 26.9352 17.7212C26.954 17.7377 26.9916 17.8036 27.0104 17.8201L27.048 17.8859C27.0668 17.8859 27.0668 17.9024 27.0856 17.9024C27.2549 18.1165 27.3113 18.0836 27.4241 18.38C27.6498 19.0882 27.7814 18.627 27.9694 19.3846C28.0071 19.5823 28.0823 19.5987 28.1951 19.747C28.2139 19.747 28.2139 19.7634 28.2139 19.7634L28.2703 19.8458C28.3455 19.9775 28.3643 20.2575 28.496 20.3893C28.7216 20.6692 28.402 20.2575 28.5524 20.4716C28.5712 20.4716 28.5712 20.4881 28.5712 20.4881L28.6464 20.6528C28.684 20.7516 28.684 20.8339 28.7216 20.9327C28.7404 20.9986 28.778 21.0316 28.7969 21.081C28.8909 21.2457 28.7969 21.1963 28.9661 21.4598L29.0601 21.5915C29.1541 21.7233 29.173 21.8221 29.2106 21.9868C29.267 22.1515 29.2858 22.0856 29.4174 22.5467L29.6431 23.0902C29.6807 23.2549 29.6619 23.4031 29.7371 23.5678L29.9816 24.0784C30.0004 24.1113 30.0004 24.0784 30.0568 24.2101C30.132 24.4407 30.0756 24.836 30.2072 25.0665L30.6585 26.2853C30.6961 26.5488 30.6961 26.2359 30.7337 26.5488C30.7714 26.7794 30.7526 26.9276 30.809 27.1252C30.809 27.1417 30.8278 27.1581 30.8278 27.1746L30.903 27.8993C30.903 28.1792 30.997 28.2781 31.0346 28.5086C31.0722 28.7227 31.091 28.9862 31.091 29.2003C31.091 29.7109 31.2791 30.2708 31.0722 30.7979C31.0534 30.7979 31.0534 30.8143 31.0534 30.8308L31.0158 30.9132C30.9594 31.0943 30.9406 31.1767 30.7902 31.2919C30.7902 31.3084 30.7714 31.3084 30.7714 31.3249C30.32 31.7037 30.2636 32.0331 29.5867 32.2966L29.5302 32.3954C29.5114 32.6589 29.3234 32.9059 29.0789 33.0706C28.8533 33.2353 28.5524 33.647 28.4396 33.7459L28.1575 33.9764C28.1387 33.9764 28.1387 33.9929 28.1199 33.9929L27.4617 34.6681C27.3113 34.7999 27.2361 34.8164 27.142 34.9975C26.954 35.3928 27.0104 35.3269 26.6719 35.6398C26.5967 35.7057 26.5591 35.7551 26.5027 35.8375C26.277 36.1174 26.1078 36.0845 25.9761 36.2327C25.9573 36.2327 25.9573 36.2492 25.9385 36.2492C25.8069 36.4139 25.6753 36.628 25.506 36.7433C25.2804 36.8586 25.2239 37.0727 25.0359 37.2374L24.9231 37.3032C24.7726 37.435 24.735 37.5832 24.5658 37.6985C24.4906 37.7644 24.3965 37.8138 24.3401 37.8797L24.2649 38.0279C24.0768 38.3079 23.8324 38.5878 23.5879 38.8349C23.4375 38.9996 23.2682 39.1149 23.1554 39.3125C23.0614 39.4772 23.1366 39.4113 22.9862 39.5266C22.9674 39.5595 22.9298 39.576 22.8921 39.6089L22.4972 39.9713C22.4972 39.9713 22.4972 39.9877 22.4784 39.9877L22.0835 40.5147C21.9707 40.6465 22.0271 40.5806 21.9519 40.7289L21.651 41.0088C21.1997 41.2888 21.557 41.2888 21.0869 41.7664C20.9176 41.9641 20.7672 42.0299 20.692 42.1452C20.6544 42.244 20.6168 42.3264 20.5792 42.3923C20.4663 42.5734 20.3535 42.5734 20.2407 42.8534L20.0526 43.1993C20.0338 43.1993 19.9962 43.2322 19.9962 43.2322L19.5637 43.858C19.4321 44.0227 19.338 44.3356 19.2252 44.4344C19.0372 44.5827 19.15 44.4015 19.0184 44.6321L18.6235 45.2744C18.5482 45.4061 18.5482 45.4885 18.5482 45.6367C18.3414 45.7849 18.379 45.7355 18.2662 45.9661C18.1533 46.2131 18.0593 46.5096 17.9089 46.7401C17.8901 46.7401 17.8901 46.7566 17.8901 46.7731L17.8336 46.839C17.8148 46.8554 17.8148 46.8554 17.8148 46.8719L17.4952 47.333L17.4764 47.3495C17.3071 47.6954 17.2319 48.0577 17.1003 48.42C17.0438 48.5847 17.0438 48.8647 16.9498 49.0294L16.6866 49.7046C16.6113 49.9681 16.6866 50.0505 16.5361 50.3963C16.3293 50.8575 16.1976 53.5255 16.3669 54.1019C16.4233 54.316 16.4421 54.7113 16.5173 54.876L16.6489 55.0736C16.7242 55.3042 16.6866 55.3701 16.8934 55.7159C16.9122 55.7159 16.9122 55.7324 16.9122 55.7489L16.9874 55.8147C17.0815 55.9136 16.9874 55.8642 17.1379 55.9136C17.4387 55.9959 17.1755 55.9136 17.3259 56.0783C17.3823 56.1441 17.3259 56.0947 17.4387 56.1606C17.5516 56.2265 17.4199 56.1112 17.5516 56.2265C17.6644 56.3088 17.608 56.3088 17.702 56.4241L17.9277 56.6217C18.1533 56.8358 17.9653 56.8194 18.3602 56.9511C18.7551 57.0993 18.4354 57.1323 18.8491 57.264C18.9619 57.297 19.0184 57.297 19.1124 57.3793C19.244 57.5111 19.0936 57.4781 19.3004 57.5605C19.5449 57.6593 19.7893 57.6428 20.0526 57.7252L20.7108 57.9722C21.3878 58.2357 22.6101 58.1699 23.2682 57.9393C23.5691 57.8405 23.4751 57.9393 23.7384 57.7911C23.7572 57.7911 23.776 57.7581 23.7948 57.7581C23.8136 57.7581 23.8136 57.7416 23.8324 57.7416C24.4906 57.4123 24.1521 57.4946 24.7162 57.2146C25.1863 56.9841 24.829 56.9841 25.1299 56.8523L25.2992 56.7864C25.318 56.7864 25.318 56.77 25.3368 56.77C25.6376 56.6053 25.5248 56.5064 25.9573 56.4406C25.9949 56.2265 26.0325 56.1771 26.183 56.0618C26.954 55.4689 26.8412 55.4195 27.0668 55.2383C27.3677 54.9913 27.3113 54.7278 27.5181 54.5466C27.819 54.2996 27.631 54.3984 27.7626 54.1843C27.8378 54.0361 27.8942 54.1513 27.9506 53.7561C28.0635 53.7067 27.9882 53.6573 28.1011 53.509C28.2327 53.3279 28.2515 53.4596 28.2703 53.1632L28.496 53.1138C28.5148 52.9161 28.5712 52.9491 28.5524 52.8009C28.5336 52.5538 28.5712 52.4385 28.7028 52.2409L29.0789 51.7468C29.173 51.4833 29.0789 51.2363 29.3234 51.0551C29.8499 50.6928 29.6807 50.3634 29.8311 49.9187C29.8875 49.7211 29.9439 49.5893 30.132 49.4576C30.3388 49.3423 30.3012 49.2764 30.3953 49.0953C30.5457 48.8317 30.5457 48.4036 30.5645 48.0577C30.5645 48.0577 30.4517 48.0906 30.6773 48.0906C30.9594 48.0742 30.8842 47.9424 30.9782 47.7777L31.1663 47.3989C31.2039 47.2836 31.1851 47.2507 31.2039 47.1189C31.2415 46.8719 31.2227 47.1683 31.2791 46.9048C31.3167 46.7566 31.2979 46.4766 31.2979 46.3284C31.3355 46.3943 31.3919 46.5096 31.4295 46.3943C31.4483 46.3943 31.4483 46.3778 31.4483 46.3613L31.7304 45.7026C31.8056 45.5708 31.7492 45.3732 31.7868 45.225C31.8432 44.945 32.1629 44.8791 32.2193 44.4344C32.2381 44.2368 32.3134 43.6439 32.4074 43.4792C32.445 43.4298 32.4074 43.4792 32.4826 43.3969L32.5014 43.3804L32.5954 43.2322C32.7271 42.9522 32.7835 41.8488 32.8023 41.5194C33.1408 41.437 32.9715 41.4864 33.0655 41.0418C33.1032 40.8771 33.122 40.8441 33.1408 40.6959L33.2348 40.5312C33.2348 40.3336 33.1972 39.8066 33.2536 39.6254C33.2724 39.5266 33.3288 39.576 33.4228 39.4772C33.4228 39.2466 33.4228 39.016 33.4228 38.7855C33.4228 38.2749 33.5169 38.5878 33.5357 38.1761C33.6861 38.1432 33.6297 38.1596 33.7237 38.0608C33.5921 37.9785 33.6297 38.0114 33.6297 37.7973C33.6297 37.5009 33.6673 37.3197 33.7613 37.0562C33.9494 36.5786 33.7237 37.3197 33.8177 36.9244C33.9682 36.3316 33.893 35.5246 33.893 34.8822C33.893 34.6023 33.8365 34.487 33.8365 34.2399C33.8365 33.9929 33.893 33.8776 33.893 33.5812C33.893 33.3506 33.893 33.12 33.893 32.8895C33.8177 32.9389 33.9494 32.9389 34.0434 32.9389L34.0622 32.2801C34.2879 32.1648 34.1938 32.313 34.3067 32.0331L35.435 30.7155C35.5478 30.6332 35.7358 30.6002 35.8298 30.5014L36.4316 29.8097C36.488 29.7274 36.488 29.7274 36.5256 29.6779C36.5256 29.6779 36.5444 29.6615 36.5444 29.645L36.7325 29.3815C36.7325 29.365 36.7325 29.365 36.7513 29.3486L36.7889 29.2827C36.8453 29.2003 36.7513 29.2827 36.8265 29.2003L37.5975 28.7227C37.8608 28.4922 37.9736 28.558 38.4625 28.5745C38.5189 28.6569 38.4625 28.6569 38.5189 28.7557C38.6318 28.9698 38.5565 28.7886 38.6506 28.9039L38.8198 29.1345C38.9891 29.3321 38.801 29.0357 38.8762 29.2003C38.9703 29.645 38.8762 30.3861 38.895 30.8967C38.9138 31.1931 38.9891 31.3743 38.9891 31.7201C39.0079 32.1483 38.9891 32.8071 39.0643 33.2188C39.1019 33.4329 39.0831 33.2188 39.1207 33.3835C39.1583 33.5318 39.1207 33.6635 39.1583 33.7953C39.1959 34.0753 39.2335 33.7953 39.2899 34.1082C39.3464 34.3882 39.1395 35.5081 39.5532 35.6728V35.3104C39.572 35.574 39.572 35.821 39.6284 36.0516C39.666 36.1998 39.7224 36.2327 39.7789 36.2821L40.0233 36.9739C40.0797 37.3032 40.1738 37.6656 40.1738 38.0114C40.1926 38.0114 40.2114 38.0279 40.2114 38.0279L40.2866 38.0608C40.343 38.0938 40.3054 38.0608 40.3806 38.0938V38.489C40.6815 38.5878 40.343 38.4396 40.5122 38.489C40.5311 38.6702 40.5311 38.8349 40.5687 38.9831C40.6627 39.3125 40.6815 39.1313 40.7191 39.1313C40.7191 39.2466 40.7003 39.3619 40.7379 39.4772L40.8319 39.6913C40.8695 39.8395 40.9072 40.0207 40.926 40.2183C41.02 40.91 41.2268 40.9594 41.2644 41.2065L41.3209 41.0088C41.3773 41.1241 41.4149 41.3053 41.4525 41.47C41.5277 41.8158 41.4525 41.6182 41.6405 41.8158C41.9226 42.0958 41.8098 42.3099 41.9602 42.5734C42.1295 42.8369 42.3739 43.084 42.5808 43.331C42.5996 43.3475 42.6372 43.3969 42.6372 43.4133C42.7688 43.578 42.75 43.7427 42.75 43.9568C42.7688 43.9568 42.7876 43.9568 42.7876 43.9733L43.1449 44.5333C43.2766 44.7144 43.2389 45.0273 43.4082 45.1591C43.615 45.3238 43.7655 45.3732 43.8595 45.6367C43.9723 45.9496 44.104 45.9332 44.1416 46.2625C44.3296 46.3119 44.4048 46.3943 44.5741 46.4602C44.5741 46.6743 44.5553 46.6578 44.6493 46.806C44.7057 46.9378 44.6493 46.8719 44.7433 46.9543L45.2699 47.7118L45.3075 47.7448C45.4391 47.8765 45.4579 47.9589 45.5519 48.1071C45.646 48.2389 45.6836 48.2224 45.7964 48.3212C45.928 48.4365 45.9844 48.6012 46.1161 48.7329C46.3793 48.9964 46.3981 49.2435 46.5862 49.4082L46.9247 49.6882C46.9811 49.7705 46.9999 49.8364 47.0751 49.9023L47.3008 49.9517C47.3384 50.3305 47.3948 50.0834 47.5452 50.2975C47.6769 50.4622 47.5829 50.5446 47.8085 50.6598C48.1658 50.8245 47.9402 50.6104 48.0906 50.9563C48.1846 51.1869 48.2974 51.0222 48.5419 51.3516C48.6171 51.4668 48.6359 51.6151 48.7488 51.7304C48.8804 51.895 48.9556 51.8292 49.0684 52.0268C49.1625 52.175 48.9932 52.0433 49.1813 52.175C49.3129 52.2903 49.0496 52.0762 49.2565 52.2244L49.4633 52.4385C49.5386 52.3397 49.5009 52.3562 49.5198 52.2244L49.7454 52.4715C49.8394 52.5538 49.8582 52.5373 49.9146 52.6856C49.9335 52.7185 49.9335 52.7515 49.9523 52.7844C49.9899 52.8832 49.9335 52.8667 50.0651 52.9161L50.1403 52.9491L50.2719 52.9985C50.2719 53.015 50.2908 53.015 50.2908 53.015L50.4788 53.2455C50.554 53.4102 50.5916 53.4102 50.8173 53.4267L50.8925 53.6243C50.9489 53.7396 51.0806 53.822 51.1558 53.8714L51.3814 54.1513C51.4943 54.2666 51.3814 54.1678 51.5319 54.2337C51.7951 54.3654 51.6447 54.4478 51.9268 54.596L52.0396 54.6619C52.0584 54.6619 52.0584 54.6784 52.0584 54.6784C52.1712 54.7772 52.2088 54.8925 52.3781 54.9748C52.7542 56.4406 63.3413 62.8471 65.4286 63.7694C65.6355 63.8682 65.7859 63.9671 65.9928 64C66.0116 63.5224 66.0304 63.4071 65.5415 63.2424C64.0559 62.7154 52.6978 55.1889 52.002 53.822C51.8327 53.4926 51.7951 53.6243 51.6259 53.3773L51.5695 53.2949C51.4755 53.1797 51.3626 53.1467 51.2498 53.0479C51.231 53.0479 51.2122 53.015 51.1934 53.015L50.4412 52.208C50.4224 52.1915 50.3472 52.1091 50.3472 52.1091L50.1591 51.895C49.9146 51.6974 50.0275 51.5657 49.8394 51.3845L49.6514 51.2527C49.2565 50.9892 49.3317 50.8245 49.1437 50.6434L48.8616 50.4128C48.6171 50.1658 48.6735 50.1328 48.5043 49.9023C48.4479 49.8364 48.4667 49.8528 48.4291 49.8199C48.3539 49.7046 48.2974 49.6058 48.1658 49.507L47.4888 48.7494C47.3948 48.6341 47.4324 48.5188 47.2256 48.2883L46.9059 47.8601C46.8495 47.7613 46.8683 47.8107 46.7931 47.7118C46.6614 47.5471 46.605 47.366 46.4546 47.1848L46.2477 46.9378C46.0973 46.806 46.1537 46.5919 45.8716 46.2625L45.7588 46.1473C45.3639 45.6202 45.7776 45.9167 45.3451 45.7191L45.1382 45.0273C45.0254 44.7803 45.0254 44.8297 44.8562 44.6815L44.7433 44.5662C44.6681 44.6485 44.7057 44.698 44.5553 44.698C44.4613 44.5003 44.4989 44.2862 44.4425 44.1051C44.4236 44.0227 44.4048 44.0227 44.386 43.9733L44.2356 43.578C43.9723 43.0345 44.1416 43.4463 43.9347 43.1169C43.8031 42.9193 43.8407 42.6063 43.7467 42.3593C43.5962 41.9641 43.5962 42.1617 43.427 41.4206C43.3518 41.1735 43.2766 41.0253 43.0885 40.8441C43.0321 40.7947 43.0509 40.8112 42.9945 40.7783L42.8064 40.6959C42.8064 40.4653 42.844 40.1854 42.7688 39.9713C42.7688 39.9548 42.75 39.9548 42.75 39.9383L42.562 39.4113C42.4868 39.2466 42.4868 38.9666 42.4303 38.7855C42.3363 38.522 42.3175 38.489 42.3175 38.1432C42.2987 37.6985 42.2799 37.8138 42.1483 37.5338L41.8474 35.6234H41.7722C41.7346 35.0469 41.5841 34.2729 41.6029 33.6635C41.6029 33.5482 41.6405 33.3341 41.5841 33.2683C41.5841 33.2518 41.5465 33.2353 41.5465 33.2188C41.3397 32.9389 41.3585 30.0238 41.4713 29.2497C41.5089 28.9698 41.5089 29.2333 41.5465 28.9862C41.6217 28.4757 41.5089 26.7464 41.7722 26.1206L41.9038 25.5936C41.9226 25.4289 41.9414 25.116 42.0166 24.9842C42.0731 24.8524 42.0731 25.0501 42.1107 24.7372C42.1295 24.4736 42.2047 24.4407 42.3175 24.2266C42.3927 24.0784 42.3551 24.1113 42.4679 23.996L42.4868 23.9796L42.9945 23.469C43.1825 23.189 43.1637 23.2549 43.333 23.0738L43.8595 22.6456C44.0664 22.5138 44.0099 22.5797 44.104 22.4809C44.2168 22.3326 44.2732 22.1515 44.4048 22.0197C44.6681 21.7727 44.5177 22.0527 44.969 21.4598C45.0818 21.3115 45.4767 20.9986 45.834 20.521C45.834 20.5045 45.834 20.5045 45.8528 20.4881L46.2101 20.1587C46.5486 19.9446 46.5674 19.9775 46.7554 19.6481C46.8683 19.4999 47.0187 19.434 47.1692 19.3023C47.1692 19.2858 47.188 19.2858 47.188 19.2858L47.8085 18.6929C47.8837 18.5941 47.8837 18.3965 47.9402 18.2977L48.5419 17.8036C48.6171 17.7542 48.6547 17.7212 48.7111 17.6224C48.7864 17.5401 48.824 17.4907 48.8804 17.4248C49.0496 17.1942 49.2565 16.9966 49.5009 16.799C49.5574 16.7495 49.5574 16.7495 49.595 16.7001C49.6702 16.6343 49.6702 16.6013 49.7266 16.486C49.8018 16.3543 49.877 16.3213 49.9899 16.2225C50.1027 16.1237 49.9899 16.2719 50.0839 16.1237C50.4412 15.5967 50.4976 15.7779 50.5916 15.5473L51.2686 14.7732C51.4943 14.6579 51.6071 14.3615 51.7951 14.1968C51.9832 14.0486 52.1148 13.8015 52.3029 13.6368C52.3405 13.6039 52.3593 13.5874 52.3781 13.5545L52.4533 13.4392C52.6226 13.1922 52.7542 13.1263 52.9234 12.8463C52.9798 12.764 53.0175 12.7146 53.0739 12.6322L53.6192 11.8911C53.7508 11.6935 53.732 11.7429 53.8825 11.6276L54.0517 11.4464C54.1645 11.3311 54.1457 11.397 54.2022 11.2488C54.315 11.0018 54.503 10.8371 54.597 10.59C54.6159 10.5241 54.597 10.5406 54.6535 10.4583L54.8227 10.2936C55.086 10.1289 54.6159 10.3924 54.8979 10.2606C55.0672 10.1948 54.9731 10.2606 55.0672 10.0136L55.1988 9.78303C55.3116 9.6348 55.3304 9.40423 55.4245 9.25601L55.6125 8.91015C55.6689 8.79487 55.6125 8.91015 55.6689 8.79487L55.9322 8.31726L55.951 8.30079C56.1014 8.08669 56.2707 8.07022 56.3835 7.83965L56.5527 7.21381C56.5904 7.06559 56.5716 7.14794 56.6092 7.08206L56.6656 7.01618C56.7784 6.78561 56.8912 6.58798 56.8912 6.34094C56.9477 6.34094 57.0041 6.32447 57.0417 6.308C57.3237 6.15978 57.3049 5.58335 57.4742 5.33631C57.587 5.13868 57.4742 5.43513 57.587 5.12221L57.681 4.90811C57.6998 4.84223 57.6998 4.79283 57.7186 4.69401C57.7751 4.34816 57.8691 3.98583 57.9067 3.65644C58.0007 3.17883 57.9443 1.89423 57.7939 1.44956C57.681 1.13664 57.5306 1.23546 57.3614 0.939008C57.3237 0.873131 57.3426 0.922539 57.3049 0.856661L57.2485 0.774315C56.9853 0.41199 56.8724 0.461398 56.5527 0.214358C56.1955 -0.0491506 55.18 0.0496653 54.7475 0.0990732C54.5783 0.115542 54.6159 0.0990732 54.4842 0.16495C54.3338 0.263766 54.4842 0.230828 54.2586 0.263766C54.0141 0.313174 53.9765 0.362582 53.7884 0.494337L53.6004 0.609622C53.4688 0.691968 53.4311 0.807253 53.2431 0.856661C52.9986 0.922539 52.9798 0.955477 52.7918 1.07076C52.7166 1.1037 52.6602 1.13664 52.6037 1.20252L52.1336 1.6966C51.8516 1.89423 51.6071 1.89423 51.2686 2.32243L50.9113 2.71769C50.7045 2.89886 50.7985 2.71769 50.1591 3.34353L49.9335 3.59057C49.8206 3.72232 49.8394 3.7882 49.7454 3.88701C49.5762 4.10112 49.5198 4.06818 49.5009 4.38109C49.2941 4.41403 48.8428 4.8093 48.7488 4.97399L48.6547 5.10574C48.6359 5.13868 48.5983 5.22103 48.5983 5.2375C48.3915 5.71511 48.2598 5.68217 47.959 5.94568L47.376 6.63739C47.282 6.86796 47.1692 6.93384 47.0375 7.16441L46.8307 7.41145C46.6802 7.59261 46.6614 7.85612 46.5486 8.00434C46.417 8.20197 46.4922 8.03728 46.3041 8.16903C46.2853 8.69605 46.3041 8.23491 46.1349 8.59724C46.0597 8.7784 46.0785 8.79487 45.928 8.94309C45.7588 9.12426 45.834 9.22307 45.6084 9.43717C45.4015 9.61833 45.4391 9.61833 45.4203 9.94772C45.1946 10.0465 45.3075 9.93125 45.1758 10.1454L44.2732 11.5123C44.2544 11.5452 44.2544 11.5452 44.2356 11.5782C44.0852 11.7923 44.0099 11.8582 43.9535 12.1711C43.9159 12.4346 43.8031 12.4675 43.6338 12.6652C43.5774 12.7475 43.5586 12.8134 43.4834 12.9122L43.4458 12.9945L43.3894 13.0439C43.3894 13.0604 43.3894 13.0604 43.3706 13.0769C43.3706 13.0769 43.3706 13.0934 43.3518 13.1098C43.2201 13.291 43.1637 13.5216 42.9757 13.6863L42.8629 13.7686C42.6184 13.9662 42.656 14.3944 42.5056 14.6579C42.5056 14.6744 42.5056 14.6744 42.4868 14.6909C42.1483 15.2014 42.4491 14.7238 42.2611 15.1356L41.8286 15.9261C41.7346 16.0743 41.791 16.2225 41.6405 16.4531C41.3585 16.8484 41.4149 17.4083 41.1704 17.8201C40.8507 18.3306 41.0576 18.3635 40.9636 18.6106C40.8883 18.7094 40.8695 18.6929 40.8319 18.7423L40.7379 18.8741C40.6063 19.0717 40.6815 18.94 40.6439 19.2199C40.6063 19.5493 40.5875 19.3517 40.4746 19.5493C40.343 19.747 40.249 20.4057 40.2114 20.6528C40.1738 20.9657 40.0797 20.9986 40.0609 21.4433L39.8729 21.5256C39.8541 21.7562 39.8353 21.888 39.7977 22.0856C39.666 22.8103 39.7601 22.3491 39.6284 22.7938C39.5532 23.0079 39.5532 23.0738 39.4404 23.2055L39.3652 23.3208C39.3275 23.3702 39.3275 23.3867 39.3087 23.4031C39.2335 23.5184 39.1395 23.6667 39.0079 23.749C38.8386 23.8478 38.9326 23.7325 38.801 23.8643C38.7446 23.9302 38.7634 23.9631 38.6882 24.029C38.5565 24.1937 38.4813 24.1607 38.3309 24.3254L38.1428 24.5889C38.1428 24.5889 38.1428 24.6054 38.124 24.6219L37.9172 24.9019C37.8984 24.9183 37.8984 24.9183 37.8796 24.9348C37.8796 24.9348 37.8796 24.9513 37.8608 24.9513L37.4095 25.2477C37.259 25.3301 37.259 25.5277 37.165 25.643C36.9958 25.8406 36.9958 25.8735 36.7513 26.0218L36.4692 26.2194C36.2812 26.3347 36.488 26.2359 36.2624 26.3347C35.9803 26.45 36.0179 26.6147 35.811 26.7958L35.04 27.6028C34.8144 27.8004 34.8896 27.9322 34.4383 27.9322C34.1938 27.9487 34.0622 27.9322 33.8553 27.8828C33.5921 27.8169 33.7425 27.8663 33.6485 27.7675C33.2724 27.3558 33.4604 26.977 33.31 26.5982L33.1972 26.4006C33.1408 26.2688 33.1596 26.1535 33.0843 26.0382C33.0279 25.9559 32.9151 25.923 32.8587 25.8241C32.7647 25.643 32.8775 25.3465 32.7647 25.1489C32.6706 25.0007 32.6518 25.0995 32.5954 24.8854C32.5202 24.5889 32.4826 24.1937 32.3698 23.9137C32.2381 23.6008 32.1817 23.0573 31.8996 22.8267L31.7116 22.7444C31.7116 22.5138 31.674 22.2832 31.5612 22.135L31.4483 22.0197C31.2979 21.8715 31.3543 21.6574 31.1663 21.4762L31.0534 21.4104C30.9782 21.361 31.0534 21.361 30.903 21.3115C30.8842 21.0316 30.8466 20.7516 30.6585 20.5375L30.5081 20.2904C30.4141 20.1093 30.4141 20.2246 30.32 20.0599C30.0568 19.5493 30.0004 19.8622 29.9251 19.2199C29.8499 18.5941 29.361 18.7259 29.173 18.2812C29.1541 18.2153 29.173 18.2318 29.1353 18.1494L29.0037 17.8201C28.9473 17.6883 28.8345 17.6389 28.7028 17.5565C28.496 17.4248 28.5336 17.3754 28.496 17.1283C28.4396 16.8813 28.496 17.0295 28.402 16.9307L28.0447 16.5025C27.9882 16.4531 28.0259 16.5025 27.9694 16.4366C27.7814 16.2225 27.913 16.1237 27.631 15.8602L27.2925 15.6132C26.9352 15.4155 27.0292 15.2344 26.7659 14.9214C26.5779 14.6909 26.3334 14.4109 26.089 14.2297C25.9385 14.1145 25.8633 13.9662 25.7505 13.8674L25.4872 13.6533C25.3932 13.5545 25.4872 13.571 25.318 13.4557C25.1299 13.3239 25.1299 13.2581 24.9419 13.0934L24.4153 12.5993C24.2837 12.5005 24.2649 12.3687 24.0957 12.2205C24.0957 12.2205 24.0957 12.204 24.0768 12.204L23.7384 11.9734C23.5503 11.8746 23.4751 11.6935 23.3435 11.5782L23.2118 11.3641C23.1742 11.2982 23.193 11.3641 23.193 11.2817ZM33.9494 9.6348L33.9118 10.063C33.5921 10.2277 33.6297 10.1124 33.5357 10.4912C33.4981 10.6559 33.5733 10.5241 33.4228 10.6394C33.1596 10.8535 33.2912 11.1664 33.1408 11.4464C33.122 11.4629 33.122 11.4629 33.122 11.4794C33.1032 11.4794 33.0843 11.5123 33.0843 11.5288C32.9527 11.677 32.7835 11.7264 32.7835 11.7429L32.5202 12.0229C32.351 12.2534 32.351 15.0697 32.4074 15.4485C32.4262 15.6461 32.445 15.8931 32.4638 16.1402C32.5014 16.5354 32.539 16.4696 32.9527 16.5025C32.9527 16.6507 33.0467 16.7825 33.1032 16.9142C33.1784 17.046 33.2912 17.0954 33.404 17.2272C33.6485 17.4742 33.7989 17.5895 34.2879 17.6224C34.4195 17.8365 34.2314 17.573 34.2879 17.7377C34.6451 17.7542 35.1905 17.8365 35.5102 17.6718L36.5068 17.0954C36.7701 16.9142 36.8829 16.6178 37.1274 16.3708C37.2966 16.2061 37.2402 16.0249 37.4095 15.8437L37.7291 15.4155C37.8044 15.185 37.8232 14.905 37.9548 14.5756L38.1993 13.8839C38.2745 13.9498 38.2557 13.7851 38.2745 14.0321C38.3685 13.0604 38.4437 13.011 38.3685 11.8911C38.3497 11.8911 38.4437 11.7593 38.3685 11.924L38.3309 11.9899C38.3309 12.0064 38.3121 12.0229 38.3121 12.0229C38.2933 11.8911 38.2933 11.9734 38.2745 11.8746L38.1428 11.43C38.124 11.4135 38.124 11.4135 38.124 11.397L38.0488 10.9853C38.0112 10.8371 38.0488 10.9194 37.9924 10.8206L37.8044 10.5077C37.8044 10.4912 37.8044 10.4912 37.7856 10.4747C37.7856 10.4583 37.7856 10.4583 37.7667 10.4418L37.6539 10.2442C37.5035 10.0465 37.5223 9.75009 37.353 9.60186C37.1838 9.47011 37.165 9.48658 36.9205 9.45364C36.6197 9.4207 36.8077 9.38776 36.5256 9.35483C36.2812 9.32189 35.811 9.32189 35.5854 9.30542C34.9084 9.25601 34.6639 9.35483 34.1186 9.56893L34.0434 9.60186C34.0434 9.60186 34.0246 9.60186 34.0058 9.60186L33.9494 9.6348ZM26.7471 39.7572C26.6907 39.4607 27.1608 39.2796 27.2925 39.049C27.4429 38.8019 27.3301 38.8843 27.5557 38.7525C27.6874 38.6866 27.6122 38.6702 27.7626 38.5714C27.9506 38.4561 27.8566 38.6866 28.1575 38.3573L28.1763 38.3408C28.402 38.0938 28.4772 37.682 28.8533 37.4844C29.1541 37.3197 29.0225 37.3362 29.1918 37.1385L29.267 37.0727C29.267 37.0727 29.2858 37.0727 29.2858 37.0562C29.3046 37.0562 29.3046 37.0397 29.3234 37.0397C29.4738 36.908 29.6243 36.7103 29.8123 36.5951L30.1508 36.3316C30.226 36.2821 30.3012 36.1504 30.7714 36.2327C30.8842 36.2492 30.8278 36.2492 30.903 36.2821C31.2791 36.4798 31.3167 37.0397 31.1475 37.3526C30.9406 37.7644 31.0158 38.3243 30.9406 38.5384L30.8278 38.9666C30.809 39.1478 30.8466 39.329 30.7337 39.4937C30.4705 39.856 30.5269 40.5147 30.4329 40.9594C30.3953 41.1241 30.32 40.9759 30.226 41.1735L30.132 41.6511C30.0004 42.0135 30.0568 42.4581 29.8499 43.0181C29.8123 43.1169 29.8311 43.1169 29.8123 43.1993L29.7371 43.3475C29.7371 43.3639 29.7183 43.3639 29.7183 43.3804C29.5678 43.5451 29.549 43.6933 29.4738 43.891C29.4738 43.9074 29.4738 43.9239 29.4738 43.9404L28.9473 45.2908C28.8909 45.3897 28.7969 45.6532 28.778 45.999C28.684 46.0484 28.7028 46.0155 28.6088 46.0978C28.6088 46.0978 28.59 46.0978 28.59 46.1143L28.3643 46.4272C28.1387 46.8884 28.3455 46.9213 28.3643 47.086C28.402 47.366 28.2891 47.0037 28.3079 47.3001C28.3267 47.5965 28.3267 47.2342 28.4208 47.4648C28.1951 47.7613 28.4208 47.7283 28.0447 47.9753C27.913 48.0742 27.9318 48.173 27.8566 48.3047L27.8378 48.3706C27.7626 48.4365 27.6874 48.453 27.5933 48.5024C27.5933 48.5682 27.5933 48.6671 27.5933 48.7329C27.5557 48.9964 27.5745 48.8153 27.4993 48.8976C27.3865 49.0623 27.3677 49.2599 27.3113 49.4246L27.2549 49.5235C27.2361 49.5399 27.2361 49.5729 27.2172 49.6058L27.1796 49.7046C27.048 50.0011 26.86 50.1987 26.7283 50.4787C26.6907 50.561 26.7283 50.4787 26.6719 50.561C26.5403 50.7422 26.5779 50.7257 26.5027 50.9234C26.5027 50.9398 26.4839 50.9563 26.4839 50.9563L26.4275 51.088C26.3898 51.1704 26.4463 51.088 26.371 51.1704L26.2958 51.2527C26.277 51.2692 26.277 51.2692 26.2582 51.2857L25.9009 51.6974C25.7881 51.8456 25.7505 52.0597 25.6376 52.208C25.5624 52.3397 25.5436 52.4221 25.3932 52.5044C25.0923 52.6856 25.3368 52.8009 24.9231 53.1467C24.7538 53.2785 24.9043 53.1467 24.8102 53.3114C24.6786 53.5255 24.6222 53.4102 24.5282 53.5584C24.3777 53.6243 24.3589 53.789 24.2649 53.8384C24.2461 53.8549 24.2461 53.8549 24.2273 53.8549L23.4751 54.7442C23.4563 54.7442 23.4563 54.7607 23.4375 54.7607C23.4187 54.8266 23.3811 54.9089 23.3623 54.9583C23.2682 55.123 23.2494 55.0078 23.0238 55.2054L22.516 55.65L22.4972 55.6665C22.4032 55.7818 22.328 55.8642 22.3092 56.0124C22.1023 56.0288 21.9331 56.1277 21.8015 56.21L21.1997 56.5723C21.0117 56.6876 21.3313 56.5559 21.0869 56.6217C20.9929 56.6547 20.786 56.77 20.5792 56.77C20.3347 56.7535 20.109 56.6547 19.8646 56.6217C19.827 56.4406 19.8458 56.5064 19.7517 56.3747C19.3004 55.8477 19.5261 55.4195 19.338 54.876C19.244 54.6619 19.2816 54.4478 19.2816 54.1843C19.2816 53.7725 19.5449 51.7139 19.6201 51.5162C19.7893 51.1539 19.7893 51.0057 19.8646 50.6269C19.921 50.3963 19.921 50.4952 19.9774 50.3469C20.015 50.2646 20.1278 49.6387 20.3911 49.1776L20.5227 48.947C20.598 48.8482 20.598 48.8153 20.6356 48.6506C20.7296 48.2553 20.8236 48.0577 21.0117 47.7283C21.1057 47.5636 21.0305 47.7118 21.1057 47.5965C21.3501 47.3001 21.3125 46.9378 21.5946 46.7072L21.6134 46.6907L21.6886 46.5919C21.8955 46.2461 22.0835 46.0649 22.422 45.5379L23.0614 44.6321C23.0802 44.6156 23.0802 44.6156 23.0802 44.5991L23.6255 43.8745C23.6443 43.858 23.7196 43.7757 23.7196 43.7757C23.87 43.6274 23.9264 43.4298 24.0204 43.2651C24.058 43.2157 24.058 43.2157 24.0957 43.1498L24.2461 42.8863C24.3213 42.7216 24.4341 42.771 24.6598 42.5075C24.6974 42.4746 24.7162 42.4581 24.7726 42.4252L25.0171 42.0793C25.1299 41.8488 25.1111 41.7499 25.3368 41.5853L25.7129 41.1735C25.8633 40.8771 25.8445 40.943 26.1078 40.7618C26.183 40.7124 26.6343 40.136 26.6907 39.9713C26.7471 39.823 26.7095 39.9218 26.7471 39.7572ZM45.3827 16.3213C46.1913 16.3213 46.0033 16.3543 46.0973 16.1896C46.1725 16.0414 46.2477 16.0084 46.3981 15.9096C46.8683 15.6461 46.7743 15.4155 47.1315 15.2014C47.188 15.152 47.1503 15.185 47.2068 15.1356C47.282 15.0697 47.2068 15.1191 47.2632 15.0861C47.2632 15.0861 47.2632 15.0697 47.282 15.0532L47.6581 14.6085C47.6581 14.5921 47.6957 14.5756 47.6957 14.5591L48.053 14.2133C48.053 14.2133 48.0718 14.1968 48.0718 14.1803C48.147 14.0815 48.241 13.9168 48.3539 13.8345C48.5043 13.7192 48.5607 13.5874 48.6735 13.4557L48.6923 13.4392C48.7111 13.4227 48.73 13.3898 48.73 13.3898L48.9556 13.2251C49.0872 13.1098 49.106 12.9122 49.2377 12.7804C49.2377 12.7804 49.2753 12.7475 49.2941 12.7475C49.2941 12.731 49.3129 12.731 49.3129 12.731C49.3129 12.7146 49.3317 12.7146 49.3317 12.7146C49.3505 12.6981 49.3693 12.6981 49.3693 12.6816C49.5762 12.5499 49.595 12.3522 49.7078 12.2864C49.8394 12.204 49.7642 12.2699 49.877 12.2205L50.0651 12.0723C50.1591 12.0064 50.2343 11.9899 50.3096 11.9076L50.7045 11.2488L50.7233 11.2323C50.9489 10.9688 51.0806 11.0347 51.137 10.8206C51.2122 10.623 51.1934 10.4747 51.3062 10.31C51.325 10.2771 51.3814 10.2442 51.3814 10.2442L51.4755 10.1124C51.6259 9.96419 51.6447 10.0136 51.7387 9.78303C51.8139 9.61833 51.8892 9.60186 52.002 9.48658L52.0584 9.43717C52.1712 9.28895 52.1524 9.17366 52.2276 9.02544C52.3029 8.84428 52.3405 8.89368 52.4909 8.7784C52.6226 8.66311 52.7354 8.46548 52.8106 8.31726C52.8858 8.16903 52.9046 8.08669 53.0927 8.03728C53.1115 7.90553 53.0927 7.88906 53.1491 7.79024C53.3183 7.55967 53.1491 7.82318 53.2807 7.72436L53.5252 7.21381L53.544 7.16441C53.5816 7.13147 53.5816 7.115 53.6192 7.08206L53.9765 6.73621C53.9765 6.47269 54.0141 5.94568 54.1457 5.76452L54.4654 5.0728C54.5594 4.79283 54.5594 4.49638 54.5406 4.2164C54.5218 3.95289 54.5594 4.06818 54.409 3.95289L54.2962 3.87054C53.8261 3.60704 53.7132 3.96936 53.5628 4.06818L53.3935 4.15052L53.3747 4.16699L53.2055 4.28228C53.2055 4.29875 53.1679 4.31522 53.1491 4.33169C52.9422 4.46344 52.9798 4.54579 52.8106 4.72695L52.6226 4.90811C52.2088 5.33631 52.096 5.25397 51.908 5.63276C51.8516 5.76452 51.8327 5.8798 51.7199 5.97862L51.2874 6.34094C51.2874 6.34094 51.2498 6.37388 51.231 6.39035L51.0806 6.60445L51.0617 6.62092C51.0617 6.63739 51.0429 6.63739 51.0429 6.65386L51.0241 6.67033L50.1591 7.77377C49.8206 8.26785 49.6702 8.11963 49.2753 8.79487C48.9556 9.38776 49.3129 8.94309 48.8804 9.38776C48.73 9.51952 48.73 9.78303 48.6171 9.96419L48.5419 10.0465C48.5419 10.063 48.5231 10.063 48.5231 10.0795C48.1846 10.343 48.3915 10.2936 48.2222 10.5736L48.1846 10.623C48.1846 10.623 48.1846 10.6394 48.1658 10.6394C48.0342 10.8041 47.959 10.7712 47.8461 10.9688C47.6957 11.2817 47.6205 11.1829 47.376 11.6935C47.3008 11.8417 47.3008 11.7758 47.2256 11.957C46.9811 12.6322 47.188 12.1381 46.8495 12.5169L46.6238 12.8957C46.5674 13.0769 46.5486 13.1428 46.417 13.2745L46.1725 13.6204L46.0409 14.2627C46.0409 14.3121 46.0221 14.345 46.0033 14.378L45.9656 14.4274C45.3451 15.0861 45.6648 15.0038 45.4579 15.6132C45.3451 15.9755 45.3451 15.6132 45.3827 16.3213Z" fill="url(#paint0_linear_1984_286)"/>
</g>
<path d="M67.358 45.396H61L64.74 20.27H71.098L69.67 29.858H78.476L79.904 20.27H86.296L82.556 45.396H76.164L77.558 35.944H68.752L67.358 45.396Z" fill="#36127E"/>
<path d="M93.0753 24.962C92.0553 24.962 91.2393 24.622 90.6273 23.942C90.0153 23.2393 89.7886 22.3667 89.9473 21.324C90.1059 20.3947 90.5366 19.624 91.2393 19.012C91.9646 18.4 92.792 18.094 93.7213 18.094C94.7413 18.094 95.5459 18.4453 96.1353 19.148C96.7473 19.828 96.9739 20.678 96.8153 21.698C96.6793 22.6273 96.2486 23.4093 95.5233 24.044C94.8206 24.656 94.0046 24.962 93.0753 24.962ZM95.7273 26.628L92.9393 45.396H86.9213L89.7093 26.628H95.7273Z" fill="#36127E"/>
<path d="M102.697 45.396H96.713L99.501 26.628H105.281L104.907 28.872C106.335 27.036 108.069 26.118 110.109 26.118C111.061 26.118 112.047 26.2993 113.067 26.662L111.503 32.306C110.755 32.034 109.984 31.898 109.191 31.898C107.808 31.898 106.641 32.374 105.689 33.326C104.737 34.2553 104.125 35.6833 103.853 37.61L102.697 45.396Z" fill="#36127E"/>
<path d="M121.305 45.906C118.2 45.906 115.82 44.9087 114.165 42.914C112.51 40.9193 111.921 38.4827 112.397 35.604C112.873 32.8613 114.188 30.5833 116.341 28.77C118.472 26.9793 120.976 26.084 123.855 26.084C127.051 26.084 129.465 27.1493 131.097 29.28C132.752 31.4107 133.239 33.9833 132.559 36.998C131.992 39.65 130.644 41.8033 128.513 43.458C126.405 45.09 124.002 45.906 121.305 45.906ZM121.849 40.262C123.028 40.262 124.082 39.854 125.011 39.038C125.986 38.222 126.552 37.236 126.711 36.08C126.96 34.856 126.745 33.8247 126.065 32.986C125.385 32.1247 124.433 31.694 123.209 31.694C122.053 31.694 121.022 32.068 120.115 32.816C119.208 33.564 118.63 34.516 118.381 35.672C118.086 36.9187 118.279 38.0067 118.959 38.936C119.639 39.82 120.602 40.262 121.849 40.262Z" fill="#36127E"/>
<path d="M146.063 26.152C148.919 26.152 151.152 27.0247 152.761 28.77C154.37 30.5153 154.96 32.8613 154.529 35.808C154.393 36.6693 154.223 37.3833 154.019 37.95H140.487C140.827 39.922 142.164 40.908 144.499 40.908C146.584 40.908 148.59 40.3073 150.517 39.106L152.489 43.322C149.928 44.9767 147.106 45.804 144.023 45.804C141.802 45.804 139.932 45.328 138.413 44.376C136.894 43.4013 135.852 42.166 135.285 40.67C134.718 39.1513 134.582 37.4967 134.877 35.706C135.285 32.8273 136.509 30.5153 138.549 28.77C140.634 27.0247 143.139 26.152 146.063 26.152ZM145.825 30.946C143.649 30.946 142.108 31.9093 141.201 33.836H149.123C149.032 32.9293 148.692 32.2267 148.103 31.728C147.536 31.2067 146.777 30.946 145.825 30.946Z" fill="#36127E"/>
<path d="M170.397 26.628H177.741L168.493 34.21L175.497 45.396H168.391L163.937 37.95L162.951 38.766L161.965 45.396H155.981L159.823 19.454H165.841L163.971 32.068L170.397 26.628Z" fill="#36127E"/>
<defs>
<filter id="filter0_d_1984_286" x="0" y="0" width="68" height="68" filterUnits="userSpaceOnUse" color-interpolation-filters="sRGB">
<feFlood flood-opacity="0" result="BackgroundImageFix"/>
<feColorMatrix in="SourceAlpha" type="matrix" values="0 0 0 0 0 0 0 0 0 0 0 0 0 0 0 0 0 0 127 0" result="hardAlpha"/>
<feOffset dy="2"/>
<feGaussianBlur stdDeviation="1"/>
<feComposite in2="hardAlpha" operator="out"/>
<feColorMatrix type="matrix" values="0 0 0 0 0 0 0 0 0 0 0 0 0 0 0 0 0 0 0.14902 0"/>
<feBlend mode="normal" in2="BackgroundImageFix" result="effect1_dropShadow_1984_286"/>
<feBlend mode="normal" in="SourceGraphic" in2="effect1_dropShadow_1984_286" result="shape"/>
</filter>
<linearGradient id="paint0_linear_1984_286" x1="18" y1="16" x2="18" y2="16" gradientUnits="userSpaceOnUse">
<stop stop-color="#8C43FE"/>
<stop offset="1" stop-color="#130CB7"/>
</linearGradient>
</defs>
</svg>
