<svg width="132" height="54" viewBox="0 0 132 54" fill="none" xmlns="http://www.w3.org/2000/svg">
<path fill-rule="evenodd" clip-rule="evenodd" d="M17.8203 9.51889C17.6147 9.51889 17.757 9.50515 17.7097 9.47732C17.7097 9.47732 17.6315 9.4086 17.6147 9.4086C17.5514 9.35294 17.488 9.3251 17.4583 9.27116C17.4427 8.95161 17.3633 9.0626 17.1737 8.92378C17.1264 8.88221 17.0787 8.81246 17.0173 8.75714L16.7483 8.59049C16.4164 8.38193 16.448 8.25686 16.2107 8.11805L15.8471 7.89574C15.7204 7.7985 15.6907 7.70126 15.5625 7.58994C15.4518 7.50644 15.3412 7.4525 15.2145 7.3398L14.6421 6.93435C14.4746 6.85478 14.3158 6.76173 14.1678 6.65638L13.7092 6.22448C13.6481 6.18625 13.59 6.14446 13.5352 6.09941C13.3929 5.97434 12.9816 5.8077 12.6974 5.61322L12.6024 5.5445C12.1911 5.25279 12.1911 5.37786 11.7485 4.97482C11.5555 4.85838 11.3488 4.76057 11.1319 4.6831L10.8156 4.47454C10.8 4.47454 10.8 4.46079 10.7839 4.46079C10.6413 4.38759 10.4935 4.32251 10.3413 4.26597L10.2632 4.19725C9.80453 3.89145 9.88351 4.12854 9.55157 3.83579C9.55157 3.82205 9.53593 3.82205 9.53593 3.80796L9.42529 3.72446C9.2513 3.5994 9.15629 3.62723 9.03001 3.54373C8.90333 3.47501 9.01437 3.48807 8.85602 3.41866C8.65037 3.30734 8.33407 3.25202 8.16048 3.14069L8.00409 3.07197C7.89314 3.04121 7.79797 2.97726 7.73509 2.89124L7.48213 2.7246C7.29251 2.58716 7.10249 2.6411 6.78658 2.41879L6.344 2.1824C6.15959 2.10945 5.95975 2.07152 5.75753 2.07107C5.67933 1.95975 5.80484 2.04324 5.67933 1.93363L5.47368 1.80856C5.41034 1.76699 5.37867 1.72507 5.2997 1.67113C5.17302 1.5598 5.33137 1.62955 5.09404 1.5598C4.83366 1.52401 4.58231 1.44879 4.35118 1.33749C4.00322 1.11518 4.00322 1.20005 3.62397 1.08735C3.48165 1.04578 3.3237 0.976028 3.14971 0.920709C2.83567 0.76608 2.48181 0.684697 2.12183 0.684313L1.96544 0.503581C1.96544 0.489837 1.9498 0.489837 1.9498 0.47575C1.94566 0.47575 1.94168 0.474302 1.93874 0.471724C1.93581 0.469147 1.93416 0.465651 1.93416 0.462006L1.61786 0.364768C1.60837 0.355551 1.59522 0.349892 1.58111 0.348962L1.45483 0.319756C1.2175 0.278181 1.23353 0.208774 0.948902 0.208774L0.821052 0.000210778C0.520782 0.000210778 0.188451 -0.0135331 0 0.180943C0.142316 0.208774 0.0473082 0.180943 0.173985 0.249663C0.379639 0.360988 0.330376 0.416307 0.64824 0.430395C0.758887 0.66679 0.600932 0.555464 0.948511 0.638959C1.13813 0.680534 0.995819 0.652703 1.13813 0.722453L1.28045 0.778116C1.51777 0.889441 1.47007 0.819691 1.7074 0.875354L2.15037 0.93136L2.22857 1.13992C2.47994 1.14285 2.72576 1.20529 2.94015 1.32066L3.85816 1.76493C3.86672 1.77244 3.87785 1.77727 3.88983 1.77867C4.08072 1.8424 4.27675 1.89351 4.4763 1.93157C4.63269 1.98724 4.82427 1.98724 4.99825 2.0429C5.17224 2.11162 5.07645 2.09856 5.20391 2.20954L5.48854 2.22329C5.52021 2.29201 5.48854 2.30678 5.53585 2.37619L6.04177 2.70982C6.18409 2.83489 6.23139 2.80706 6.46872 2.89055C6.57936 2.93213 6.69001 2.94622 6.81669 2.98779C6.93064 2.99586 7.04256 3.01903 7.14863 3.05651L7.38595 3.20941C7.46415 3.27813 7.44929 3.39014 7.52827 3.45955C7.62327 3.52827 7.73392 3.52827 7.82854 3.58462L7.87584 3.6262C7.87999 3.6262 7.88397 3.62764 7.8869 3.63022C7.88984 3.6328 7.89148 3.63629 7.89148 3.63994C8.01816 3.70866 8.04787 3.6956 8.16048 3.76501L8.42947 3.90245C8.54011 3.94402 8.57178 4.02752 8.7141 4.09692L8.90372 4.18042C8.96182 4.21643 9.02574 4.24457 9.09335 4.26391C9.20399 4.30549 9.26733 4.29174 9.36234 4.36115C9.51873 4.45839 9.6153 4.56971 9.77365 4.65286C9.83768 4.66963 9.89696 4.69808 9.94763 4.73636C10.1533 4.8738 9.9793 4.86143 10.3112 4.8738C10.4062 5.13768 10.5009 5.15177 10.8488 5.26275C11.3391 5.41565 10.8805 5.38782 11.2914 5.59638C11.4478 5.6651 11.3548 5.59638 11.4337 5.72145C11.5444 5.87435 11.7184 5.90219 11.8607 6.041L12.7619 6.68009C12.9515 6.87457 13.2205 6.86082 13.3945 7.02747C13.4895 7.12471 13.4101 7.06904 13.5368 7.16491C13.5841 7.19274 13.6318 7.23363 13.6791 7.26215C13.9004 7.38722 13.9164 7.47071 14.1061 7.60952L15.0706 8.38777C15.3077 8.5683 15.5298 8.76351 15.7353 8.97189C16.0516 9.33335 16.0043 9.15262 16.4308 9.52783C16.5415 9.62506 16.5872 9.68073 16.6838 9.77797L16.8894 9.97244C16.8894 9.98619 16.8894 9.98619 16.9051 10.0003L17.1897 10.3617C17.2053 10.3617 17.2053 10.3755 17.2053 10.3896L17.2687 10.4731C17.3122 10.5097 17.3599 10.5423 17.411 10.5703L17.8063 10.9318C17.9627 11.1262 18.0753 11.0984 18.2489 11.3348L18.4385 11.6128C18.5018 11.6815 18.4385 11.6128 18.4858 11.6815C18.5071 11.7011 18.5232 11.7245 18.5331 11.7502C18.6754 11.9309 18.6754 11.778 18.8334 11.9588L19.1497 12.2924C19.2763 12.4731 19.3061 12.6398 19.5923 12.6814C19.5936 12.8102 19.6493 12.934 19.7486 13.0287C19.7486 13.0324 19.7503 13.0359 19.7532 13.0385C19.7562 13.041 19.7601 13.0425 19.7643 13.0425L19.9383 13.2091C19.9383 13.2229 19.9539 13.2229 19.9539 13.237L19.9856 13.3057C20.0012 13.3473 20.0173 13.3744 20.0329 13.417C20.0808 13.5779 20.1732 13.7259 20.3019 13.8479L20.6499 14.2647C20.7332 14.4991 20.839 14.7269 20.9662 14.9457C20.9818 14.9594 21.0135 15.0144 21.0295 15.0292L21.0612 15.0848C21.0768 15.0848 21.0768 15.0986 21.0928 15.0986C21.2351 15.2793 21.2825 15.2515 21.3775 15.5016C21.5671 16.0991 21.6777 15.7102 21.8361 16.3493C21.8677 16.5159 21.9311 16.53 22.0257 16.6551C22.0298 16.6551 22.0338 16.6565 22.0368 16.6591C22.0397 16.6617 22.0413 16.6652 22.0413 16.6688L22.0886 16.7375C22.152 16.8489 22.1668 17.0849 22.2783 17.1962C22.4679 17.4326 22.2001 17.0849 22.3256 17.265C22.3297 17.265 22.3337 17.2664 22.3366 17.269C22.3396 17.2716 22.3412 17.2751 22.3412 17.2787L22.4046 17.4161C22.4362 17.4996 22.4362 17.569 22.4679 17.6525C22.486 17.6953 22.5072 17.7371 22.5312 17.7776C22.6094 17.915 22.5312 17.8748 22.6735 18.0971L22.7517 18.2085C22.8197 18.3108 22.8628 18.4244 22.8784 18.5421C22.9516 18.6949 23.0098 18.853 23.0524 19.0146L23.242 19.4733C23.2527 19.6096 23.2789 19.7446 23.3202 19.8763L23.5259 20.3072C23.5555 20.34 23.5771 20.3779 23.5892 20.4185C23.6083 20.6617 23.6506 20.9031 23.7159 21.14L24.0955 22.1684C24.1272 22.3907 24.1272 22.1269 24.1589 22.3907C24.1704 22.5537 24.1915 22.7159 24.2222 22.8769C24.2222 22.8907 24.2379 22.9048 24.2379 22.9185L24.3012 23.5298C24.3182 23.7044 24.3553 23.8771 24.4118 24.0452C24.4433 24.2386 24.4591 24.4338 24.4591 24.6293C24.4591 25.0602 24.6155 25.5326 24.4435 25.9772C24.4279 25.9772 24.4279 25.991 24.4279 26.005L24.3962 26.0738C24.3791 26.197 24.3118 26.3105 24.2066 26.3933C24.2066 26.4071 24.1909 26.4071 24.1909 26.4211C23.8113 26.7407 23.764 27.0187 23.1947 27.241L23.1474 27.3245C23.1328 27.4374 23.0915 27.5465 23.0261 27.6446C22.9607 27.7427 22.8727 27.8277 22.7678 27.8941C22.576 28.0746 22.3965 28.2649 22.2302 28.4638L21.9929 28.6583C21.9772 28.6583 21.9772 28.672 21.9612 28.672L21.408 29.2417C21.2813 29.3531 21.2183 29.3668 21.139 29.5197C21.0754 29.7344 20.9381 29.9266 20.7456 30.0701C20.6896 30.1196 20.6417 30.1757 20.6033 30.2368C20.4137 30.4732 20.2714 30.4454 20.1607 30.5704C20.1451 30.5704 20.1451 30.5842 20.1291 30.5842C20.0298 30.7369 19.9075 30.8771 19.7655 31.001C19.5758 31.0982 19.5281 31.2789 19.3702 31.4177L19.2752 31.4734C19.1485 31.5847 19.1188 31.7098 18.9749 31.807C18.9081 31.8545 18.8448 31.9056 18.7853 31.9599L18.7219 32.085C18.5555 32.3264 18.365 32.5543 18.1527 32.766C18.0145 32.8878 17.8925 33.023 17.7891 33.1691C17.7109 33.3065 17.7734 33.2525 17.6468 33.3498C17.6311 33.3776 17.5994 33.3914 17.5686 33.4185L17.2366 33.7243C17.2366 33.728 17.235 33.7314 17.232 33.734C17.2291 33.7366 17.2251 33.7381 17.221 33.7381L16.889 34.1827C16.794 34.294 16.8417 34.2383 16.7784 34.3634L16.5254 34.5998C16.1458 34.8362 16.4472 34.8362 16.0512 35.2389C15.9089 35.4055 15.7822 35.4612 15.7192 35.5584C15.6931 35.6298 15.6614 35.6995 15.6242 35.767C15.5292 35.9199 15.4346 35.9199 15.3396 36.1559L15.1832 36.4477C15.1676 36.4477 15.1359 36.4755 15.1359 36.4755L14.7723 37.0036C14.6616 37.141 14.5827 37.4066 14.4877 37.4898C14.3313 37.6149 14.4243 37.462 14.3137 37.6564L13.9817 38.1983C13.929 38.2932 13.9071 38.399 13.9184 38.5041C13.7444 38.6292 13.7761 38.5876 13.6811 38.7821C13.5974 39.0052 13.4971 39.2233 13.3808 39.4349C13.3652 39.4349 13.3652 39.4486 13.3652 39.4627L13.3179 39.5184C13.3022 39.5321 13.3022 39.5321 13.3022 39.5462L13.0332 39.9352L13.0176 39.9489C12.8753 40.2406 12.8119 40.5464 12.7013 40.8522C12.6743 41.0267 12.6319 41.199 12.5746 41.3676L12.3533 41.9373C12.3347 42.1354 12.2923 42.3312 12.2266 42.5214C12.0193 43.5533 11.9714 44.605 12.0843 45.6482C12.1316 45.8289 12.1477 46.1636 12.211 46.301L12.3216 46.4677C12.3556 46.657 12.4251 46.8401 12.5273 47.0095C12.5429 47.0095 12.5429 47.0233 12.5429 47.0373L12.6063 47.093C12.6845 47.1765 12.6063 47.1346 12.733 47.1765C12.9859 47.2452 12.7646 47.1765 12.8893 47.3139C12.9367 47.3696 12.8893 47.3277 12.9844 47.3827C13.0794 47.4376 12.9687 47.3411 13.0794 47.4383C13.1744 47.507 13.1267 47.507 13.206 47.605L13.3957 47.7716C13.5853 47.9523 13.4273 47.9383 13.7593 48.0496C14.0912 48.1746 13.8226 48.2025 14.1706 48.3135C14.2537 48.3257 14.3308 48.3596 14.3919 48.4107C14.5025 48.522 14.3762 48.4942 14.5483 48.5636C14.7539 48.6471 14.9596 48.6323 15.1809 48.701L15.7341 48.9096C16.4347 49.1091 17.1908 49.0993 17.8845 48.8818C18.1374 48.7983 18.0585 48.8818 18.2797 48.7567C18.2954 48.7567 18.3114 48.7289 18.3271 48.7289C18.3427 48.7289 18.3427 48.7151 18.3587 48.7151C18.9123 48.4372 18.6277 48.5066 19.1016 48.2705C19.4969 48.076 19.1966 48.076 19.4496 47.9647L19.5919 47.909C19.6075 47.909 19.6075 47.8953 19.6235 47.8953C19.8765 47.7579 19.7799 47.673 20.1455 47.6173C20.1468 47.5548 20.1647 47.4934 20.1976 47.438C20.2305 47.3825 20.2775 47.3345 20.3351 47.2978C20.6099 47.0899 20.8589 46.857 21.078 46.603C21.3309 46.3945 21.2836 46.1722 21.4576 46.0189C21.7106 45.8104 21.5526 45.8938 21.6633 45.7131C21.7266 45.588 21.7739 45.6853 21.8197 45.3517C21.9147 45.3101 21.8513 45.2682 21.9463 45.1431C22.057 44.9902 22.073 45.1015 22.0886 44.8514L22.2783 44.8098C22.2939 44.6432 22.3416 44.6724 22.3256 44.5459C22.301 44.3801 22.346 44.2122 22.4523 44.0735L22.7686 43.6567C22.8468 43.4344 22.7686 43.2258 22.9742 43.0726C23.4168 42.7668 23.2745 42.4884 23.4012 42.1136C23.4272 41.9607 23.5175 41.8219 23.6541 41.7246C23.8281 41.6274 23.7964 41.5717 23.8754 41.4188C23.9819 41.139 24.0305 40.8447 24.0189 40.5499C24.0189 40.5499 23.9239 40.5777 24.1139 40.5777C24.3512 40.564 24.2879 40.4526 24.3669 40.3138L24.5233 39.9943C24.5425 39.9166 24.5531 39.8374 24.5549 39.7579C24.5866 39.5493 24.5706 39.7995 24.6183 39.5771C24.6393 39.4158 24.6445 39.2531 24.6339 39.091C24.6656 39.1466 24.7121 39.2439 24.7446 39.1466C24.7602 39.1466 24.7602 39.1329 24.7602 39.1188L24.9975 38.5629C25.0609 38.4515 25.0132 38.2849 25.0448 38.1598C25.0921 37.9234 25.3611 37.8681 25.4084 37.4929C25.427 37.22 25.4795 36.9497 25.5648 36.6868C25.5838 36.6624 25.605 36.6394 25.6282 36.6181L25.6438 36.6043L25.722 36.4793C25.8293 36.0031 25.8875 35.5194 25.896 35.0341C26.1806 34.9654 26.0383 35.0063 26.1173 34.6311C26.1446 34.5349 26.1657 34.4375 26.1806 34.3393L26.2588 34.2019C26.2402 33.9472 26.2454 33.6917 26.2745 33.4377C26.2901 33.3543 26.3378 33.3962 26.4168 33.3127V32.7286C26.4168 32.2977 26.495 32.5619 26.5118 32.2132C26.6384 32.1853 26.59 32.1994 26.6682 32.1159C26.5575 32.0472 26.59 32.0744 26.59 31.8936C26.5856 31.6811 26.623 31.4696 26.7006 31.2683C26.857 30.8652 26.6689 31.4906 26.7479 31.1569C26.8329 30.5858 26.8542 30.0086 26.8113 29.4338C26.8113 29.1974 26.764 29.1002 26.764 28.892C26.764 28.6837 26.8113 28.5862 26.8113 28.336V27.7519C26.7479 27.7935 26.8586 27.7935 26.9379 27.7935L26.9536 27.2375C27.1432 27.1403 27.0642 27.2654 27.1592 27.029L28.1081 25.9174C28.2031 25.8487 28.3611 25.8202 28.4401 25.7367L28.946 25.1526C28.9933 25.0839 28.9933 25.0839 29.0242 25.0413C29.0327 25.0337 29.0382 25.024 29.0398 25.0134L29.1962 24.7911C29.1962 24.7774 29.1962 24.7774 29.2119 24.7633L29.2435 24.7076C29.2908 24.6389 29.2119 24.7076 29.2752 24.6389L29.9234 24.2359C30.1447 24.0414 30.2397 24.0984 30.6507 24.1108C30.698 24.1795 30.6507 24.1795 30.698 24.2637C30.793 24.4444 30.7296 24.2915 30.8086 24.3888L30.9509 24.5832C31.0932 24.7499 30.9353 24.4997 30.9982 24.6389C31.0354 25.1154 31.0406 25.5933 31.0139 26.0703C31.0295 26.3205 31.0921 26.4734 31.0921 26.7651C31.0892 27.1872 31.1103 27.6092 31.1554 28.0295C31.1871 28.2103 31.171 28.0295 31.2027 28.167C31.2344 28.292 31.2027 28.4034 31.2344 28.5143C31.2661 28.7507 31.2977 28.5143 31.345 28.7782C31.3923 29.0146 31.2184 29.9595 31.5663 30.0983V29.7925C31.5703 30.002 31.5915 30.211 31.6297 30.4179C31.6427 30.4943 31.6879 30.5637 31.7563 30.6123L31.962 31.1965C32.0285 31.4852 32.0708 31.7778 32.0887 32.0719C32.1007 32.0733 32.1118 32.0782 32.1203 32.0857L32.1837 32.1135C32.231 32.1414 32.1993 32.1135 32.2619 32.1414V32.4753C32.5148 32.5588 32.2302 32.4338 32.3725 32.4753C32.3789 32.615 32.3947 32.7541 32.4198 32.8921C32.498 33.1701 32.5148 33.0172 32.5465 33.0172C32.5359 33.1146 32.5412 33.2128 32.5621 33.3089L32.6403 33.4896C32.6778 33.6361 32.7039 33.7847 32.7185 33.9342C32.7718 34.2219 32.8675 34.5022 33.0032 34.7682L33.0505 34.6015C33.1004 34.728 33.1374 34.8582 33.1611 34.9905C33.2245 35.2822 33.1611 35.1155 33.3175 35.2822C33.5548 35.5186 33.4598 35.699 33.5865 35.9213C33.7462 36.1431 33.9204 36.3565 34.1085 36.5604C34.1298 36.58 34.1459 36.6034 34.1558 36.6291C34.2443 36.7685 34.2777 36.9299 34.2508 37.0878C34.2664 37.0878 34.2824 37.0878 34.2824 37.1015L34.5827 37.574C34.6934 37.7269 34.6609 37.9908 34.804 38.1021C34.978 38.2395 35.1043 38.2828 35.1836 38.5051C35.2787 38.769 35.3893 38.7553 35.421 39.0332C35.5469 39.0804 35.6685 39.1361 35.7846 39.1999C35.7846 39.3806 35.7689 39.3665 35.8479 39.4916C35.8952 39.6029 35.8479 39.5473 35.9261 39.6167L36.3687 40.2558L36.4004 40.2836C36.4838 40.3772 36.553 40.48 36.606 40.5894C36.6842 40.7007 36.7167 40.6866 36.8117 40.7701C36.9223 40.8674 36.9681 41.0065 37.0807 41.1175C37.302 41.3398 37.318 41.5484 37.4759 41.6872L37.7606 41.9236C37.7933 41.9886 37.8359 42.0494 37.8873 42.1043L38.0769 42.1459C38.1085 42.4654 38.1551 42.2572 38.2825 42.4376C38.3932 42.575 38.3142 42.6462 38.5038 42.7434C38.8041 42.8808 38.6145 42.7018 38.7411 42.9935C38.8193 43.188 38.9151 43.0492 39.1208 43.3272C39.1657 43.4388 39.2241 43.5459 39.2948 43.6467C39.4054 43.7842 39.4688 43.7302 39.5638 43.8969C39.642 44.0219 39.5004 43.9106 39.6588 44.0219C39.7694 44.1192 39.5481 43.9384 39.7221 44.0635L39.8961 44.2442C39.9594 44.1607 39.9278 44.1755 39.9434 44.0635L40.133 44.2721C40.2112 44.3408 40.228 44.3277 40.2753 44.4528C40.291 44.4806 40.291 44.5085 40.307 44.5363C40.3387 44.6198 40.2914 44.605 40.402 44.6476L40.4654 44.6754L40.576 44.717C40.576 44.7207 40.5777 44.7242 40.5806 44.7267C40.5835 44.7293 40.5875 44.7308 40.5916 44.7308L40.748 44.9252C40.8114 45.0627 40.843 45.0627 41.0327 45.0781L41.096 45.2448C41.1484 45.3297 41.2246 45.4015 41.3173 45.4534L41.5069 45.6897C41.6019 45.787 41.5069 45.7035 41.6336 45.7585C41.8549 45.8698 41.7286 45.9392 41.9655 46.0643L42.0605 46.1199C42.0647 46.1199 42.0687 46.1214 42.0716 46.124C42.0745 46.1265 42.0762 46.13 42.0762 46.1337C42.1712 46.2172 42.2029 46.3144 42.3452 46.3838C42.6615 47.6208 51.5636 53.0262 53.3187 53.8055C53.4636 53.8927 53.6238 53.9584 53.793 54C53.8086 53.597 53.8247 53.4997 53.4134 53.3609C52.1642 52.9163 42.6138 46.5659 42.0285 45.4125C41.8862 45.1345 41.8545 45.2458 41.7122 45.0373L41.6649 44.9685C41.5867 44.8713 41.4909 44.8435 41.3959 44.76C41.3802 44.76 41.3642 44.7321 41.3486 44.7321L40.716 44.0511C40.7003 44.0374 40.6378 43.9676 40.6378 43.9676L40.4814 43.7869C40.2757 43.6203 40.3707 43.5089 40.2124 43.356L40.056 43.2447C39.7241 43.0224 39.787 42.8832 39.6291 42.7293L39.3917 42.5348C39.2725 42.4022 39.1716 42.2576 39.0915 42.104C39.0735 42.079 39.0522 42.0559 39.0281 42.0352C38.9742 41.9357 38.8991 41.8461 38.8068 41.7714L38.2376 41.1323C38.1594 41.035 38.1903 40.9378 38.0163 40.7433L37.7477 40.3819C37.7004 40.2984 37.716 40.3403 37.6527 40.2568C37.542 40.1193 37.4963 39.9651 37.368 39.8122L37.194 39.6036C37.0674 39.4923 37.1159 39.3119 36.8778 39.0339L36.7827 38.9367C36.4508 38.4921 36.7984 38.7422 36.4348 38.5756L36.2608 37.9914C36.1658 37.7829 36.1658 37.8248 36.0235 37.6997L35.9285 37.6025C35.8651 37.6712 35.8968 37.7138 35.7721 37.7138C35.7263 37.5494 35.6946 37.3821 35.6771 37.2135C35.6667 37.1748 35.6508 37.1374 35.6297 37.1022L35.514 36.7703C35.2927 36.3116 35.4358 36.659 35.2611 36.3813C35.189 36.1725 35.1367 35.9587 35.1047 35.7423C34.9746 35.4899 34.8842 35.2231 34.8361 34.9492C34.7933 34.7674 34.6949 34.5993 34.5514 34.463C34.5294 34.4405 34.5029 34.4216 34.4732 34.4074L34.3168 34.3387C34.3383 34.1346 34.3276 33.9289 34.2852 33.7274C34.2852 33.7137 34.2695 33.7137 34.2695 33.6996L34.1132 33.255C34.0498 33.1175 34.0498 32.8797 34.0025 32.7268C33.9264 32.5545 33.8939 32.3695 33.9075 32.185C33.9263 32.0041 33.8763 31.8228 33.7652 31.6696L33.5067 30.0574H33.4434C33.4117 29.5709 33.287 28.9181 33.3011 28.4037C33.3011 28.3065 33.3328 28.1257 33.2854 28.0701C33.2854 28.0563 33.2538 28.0422 33.2538 28.0285C33.0798 27.7921 33.0974 25.3326 33.1904 24.6794C33.2221 24.4431 33.2221 24.6657 33.2538 24.4571C33.3171 24.0263 33.2221 22.5674 33.4434 22.0392L33.5541 21.5946C33.5598 21.4199 33.5918 21.2466 33.6491 21.0792C33.6964 20.9679 33.6964 21.1349 33.7273 20.8707C33.7416 20.7162 33.8016 20.5677 33.9012 20.4398C33.9646 20.3147 33.9329 20.3426 34.0279 20.2453L34.0436 20.2316L34.4705 19.8007C34.5468 19.6782 34.6427 19.5658 34.7551 19.4671L35.1977 19.1056C35.3717 18.9943 35.3244 19.0499 35.4034 18.9682C35.4783 18.8339 35.5627 18.704 35.6563 18.5792C35.8776 18.3707 35.7513 18.607 36.1306 18.1068C36.3888 17.8543 36.6315 17.5899 36.8578 17.3148C36.8578 17.301 36.8578 17.301 36.8734 17.2869L37.1737 17.009C37.4584 16.8282 37.474 16.8561 37.6323 16.5781C37.7365 16.4705 37.8531 16.3728 37.9803 16.2864C37.9803 16.2827 37.982 16.2792 37.9849 16.2767C37.9878 16.2741 37.9918 16.2726 37.9959 16.2726L38.5179 15.7724C38.5812 15.6889 38.5812 15.5222 38.6285 15.4387L39.1368 15.0206C39.1998 14.9825 39.2491 14.9295 39.2791 14.8677C39.3425 14.799 39.3741 14.7564 39.4214 14.701C39.5688 14.506 39.7443 14.3285 39.9434 14.1729C39.974 14.1486 40.0003 14.1205 40.0216 14.0894C40.0849 14.0338 40.0849 14.0059 40.1322 13.9087C40.1885 13.8224 40.2637 13.7468 40.3535 13.6864C40.4485 13.6029 40.3535 13.728 40.4317 13.6029C40.732 13.1583 40.7797 13.3112 40.8587 13.1167L41.4279 12.4639C41.6176 12.3666 41.7126 12.1165 41.8705 11.9777C42.0269 11.8526 42.1395 11.644 42.2975 11.5052C42.3232 11.4859 42.3446 11.4626 42.3608 11.4365L42.4242 11.3393C42.5665 11.1307 42.6771 11.0754 42.8194 10.839C42.8667 10.7703 42.8976 10.7277 42.9461 10.6583L43.4047 10.0329C43.4526 9.94164 43.5294 9.86445 43.626 9.81061L43.7683 9.65771C43.8633 9.56047 43.8465 9.61613 43.895 9.49106C43.99 9.2825 44.148 9.14369 44.227 8.93512C44.2309 8.89492 44.2472 8.85643 44.2743 8.8238L44.4166 8.68636C44.6379 8.54892 44.2426 8.76985 44.4799 8.65852C44.6222 8.60286 44.5432 8.65853 44.6222 8.44996L44.7329 8.25549C44.8279 8.13042 44.8435 7.93594 44.9225 7.81087L45.0789 7.51916L45.1262 7.42192L45.3475 7.01888L45.3631 7.00513C45.4898 6.8244 45.6321 6.81066 45.7267 6.61618L45.8691 6.08807C45.9007 5.963 45.8847 6.03241 45.9164 5.97675L45.9637 5.92108C46.072 5.7451 46.1366 5.55094 46.1533 5.3514C46.1973 5.35047 46.2406 5.34096 46.28 5.32357C46.5173 5.1985 46.5013 4.71231 46.6436 4.50374C46.7386 4.3371 46.6436 4.58724 46.7386 4.32301L46.8168 4.14228C46.8324 4.08662 46.8324 4.04504 46.8484 3.96155C46.8958 3.66983 46.9751 3.36403 47.0048 3.08606C47.0766 2.46466 47.0446 1.83737 46.9098 1.22411C46.8148 0.960222 46.6885 1.04337 46.5462 0.793234C46.5146 0.737571 46.5306 0.77949 46.4989 0.724514L46.4516 0.655795C46.2303 0.349993 46.1353 0.391912 45.8651 0.183348C45.5649 -0.0389593 44.711 0.0459093 44.3474 0.0861102C44.2051 0.0998541 44.2367 0.0861102 44.1261 0.141773C43.9994 0.225267 44.1261 0.197436 43.9365 0.225267C43.7853 0.253256 43.6474 0.321098 43.5412 0.419743L43.3848 0.516981C43.2741 0.585701 43.2425 0.683626 43.0845 0.725545C42.9442 0.760167 42.8145 0.821917 42.7049 0.906278C42.6428 0.931117 42.589 0.969429 42.5485 1.0176L42.1552 1.43164C41.9178 1.59828 41.7126 1.59828 41.4279 1.95975L41.1277 2.29338C40.8913 2.44425 40.6786 2.62181 40.4951 2.82149L40.3054 3.03005C40.2104 3.14138 40.2273 3.1967 40.1491 3.28019C40.0067 3.46093 39.9594 3.43309 39.9434 3.69698C39.684 3.80914 39.465 3.98231 39.3108 4.19725L39.2326 4.30858C39.2125 4.34414 39.1966 4.38145 39.1853 4.41991C39.0113 4.82295 38.9007 4.79511 38.6477 5.01742L38.1574 5.60154C38.0747 5.75549 37.9796 5.90407 37.8728 6.04615L37.6988 6.25472C37.5721 6.40762 37.5565 6.62993 37.4615 6.75499C37.3508 6.92164 37.4142 6.78283 37.2558 6.89243C37.2402 7.33705 37.2558 6.9481 37.1135 7.2539C37.088 7.36361 37.0277 7.46474 36.9395 7.54561C36.7972 7.69851 36.8613 7.78201 36.6705 7.9624C36.4965 8.1153 36.5282 8.1153 36.5141 8.39327C36.3245 8.47676 36.4191 8.37952 36.3085 8.55991L35.5496 9.71337L35.5179 9.76903C35.3895 9.9142 35.3075 10.0869 35.2806 10.2693C35.2489 10.4916 35.1539 10.5194 35.0116 10.6861C34.9643 10.7548 34.9483 10.8112 34.8849 10.8947L34.8533 10.9634L34.806 11.005C34.806 11.0187 34.806 11.0187 34.7903 11.0328C34.7892 11.0435 34.7837 11.0534 34.7747 11.0606C34.6909 11.2328 34.5847 11.396 34.4584 11.5468L34.3634 11.6155C34.1577 11.7822 34.1894 12.1436 34.0631 12.3659C34.0631 12.3797 34.0631 12.3797 34.0475 12.3938C33.7628 12.8246 34.0158 12.4216 33.8578 12.769L33.4942 13.4359C33.416 13.561 33.4626 13.686 33.3378 13.8805C33.1005 14.2142 33.1482 14.6866 32.9426 15.034C32.6681 15.4673 32.8421 15.4944 32.7639 15.7026C32.7006 15.7861 32.6857 15.7713 32.6532 15.8139L32.575 15.9253C32.4644 16.0919 32.5277 15.9809 32.4968 16.217C32.4652 16.495 32.4495 16.3283 32.3545 16.495C32.2384 16.7964 32.1641 17.109 32.1332 17.4261C32.0729 17.6455 32.0305 17.8683 32.0066 18.093L31.8502 18.1617C31.8387 18.3201 31.8176 18.4778 31.7868 18.6342C31.7689 18.8379 31.7211 19.0388 31.6445 19.2317C31.6205 19.3558 31.5672 19.4741 31.4881 19.5791L31.4248 19.6763C31.3931 19.7179 31.3931 19.732 31.3775 19.745C31.3167 19.8564 31.2306 19.9557 31.1245 20.0368C30.9822 20.1203 31.0612 20.023 30.9505 20.134C30.9032 20.1897 30.9189 20.2175 30.8555 20.2714C30.7449 20.4089 30.6815 20.3828 30.5553 20.5216L30.3989 20.7439C30.3978 20.7545 30.3922 20.7645 30.3832 20.7717L30.2092 21.0081L30.1776 21.0359L30.1764 21.0412L30.173 21.0457L30.1679 21.0486L30.1619 21.0497L29.7823 21.2998C29.6556 21.3685 29.6556 21.5362 29.5766 21.6335C29.4906 21.7624 29.3714 21.8718 29.2287 21.953L28.9914 22.1196C28.835 22.2169 29.007 22.1334 28.8174 22.2169C28.58 22.3141 28.6117 22.4533 28.4377 22.6058L27.7895 23.2868C27.5999 23.4535 27.6628 23.5648 27.2836 23.5648C27.1186 23.58 26.9519 23.5659 26.7933 23.5232C26.572 23.4676 26.6983 23.5095 26.6193 23.426C26.303 23.0786 26.4629 22.7591 26.3347 22.4395L26.2397 22.2729C26.2174 22.1689 26.1856 22.0666 26.1446 21.9671C26.0973 21.8984 26.0023 21.8699 25.955 21.7864C25.8768 21.6335 25.9707 21.3833 25.8768 21.2167C25.7986 21.0916 25.7818 21.1751 25.7345 20.9944C25.6881 20.7183 25.6248 20.4446 25.5449 20.1745C25.4342 19.9107 25.3885 19.453 25.1496 19.2575L24.9932 19.1888C25.0058 19.01 24.962 18.8316 24.8665 18.6734L24.7715 18.5761C24.6449 18.4511 24.6933 18.2703 24.5342 18.1174L24.4392 18.0618C24.3759 18.0202 24.4392 18.0202 24.3125 17.9783C24.3197 17.7475 24.2481 17.5201 24.1069 17.3254L23.9802 17.1169C23.902 16.964 23.902 17.0612 23.8238 16.9224C23.6025 16.4915 23.5548 16.7557 23.4919 16.2135C23.4285 15.6854 23.0176 15.7968 22.8593 15.4216C22.8544 15.3834 22.8438 15.3459 22.8276 15.3102L22.7169 15.0323C22.6696 14.9209 22.5746 14.8794 22.464 14.81C22.29 14.6986 22.3217 14.6571 22.29 14.4485C22.2427 14.2399 22.29 14.365 22.2118 14.2818L21.9115 13.9204C21.8642 13.8788 21.8959 13.9204 21.8482 13.8647C21.6918 13.684 21.8009 13.6008 21.5636 13.3782L21.2789 13.1696C20.9787 13.003 21.0576 12.8501 20.8363 12.5855C20.6726 12.3723 20.4816 12.1763 20.2671 12.0014C20.1404 11.9041 20.0775 11.7791 19.9825 11.6956L19.7612 11.5149C19.683 11.4314 19.7612 11.4461 19.6188 11.3482C19.5056 11.2527 19.4 11.1505 19.3025 11.0424L18.86 10.6256C18.7493 10.5421 18.7333 10.4311 18.591 10.3061C18.591 10.3024 18.5893 10.2989 18.5864 10.2964C18.5835 10.2938 18.5795 10.2923 18.5753 10.2923L18.2907 10.0979C18.1343 10.0144 18.0694 9.86146 17.9588 9.76422L17.8481 9.58349C17.8047 9.53298 17.8203 9.5883 17.8203 9.51889ZM26.8648 8.12938L26.8332 8.49222C26.5642 8.62966 26.5958 8.5338 26.5169 8.85369C26.4852 8.99113 26.5485 8.88152 26.4218 8.97876C26.2006 9.15949 26.3112 9.42337 26.1845 9.65977C26.1689 9.67351 26.1689 9.67351 26.1689 9.6876C26.1532 9.6876 26.1372 9.71543 26.1372 9.72917C26.0639 9.80038 25.9785 9.86133 25.8843 9.90991L25.663 10.1463C25.5206 10.3408 25.5206 12.7171 25.568 13.0366C25.5836 13.2033 25.5996 13.4119 25.6153 13.6208C25.6469 13.9544 25.6786 13.8987 26.0266 13.9266C26.0446 14.0481 26.0876 14.1658 26.1532 14.2739C26.2166 14.3853 26.3096 14.4268 26.4062 14.5378C26.4894 14.6427 26.6006 14.7281 26.7302 14.7862C26.8597 14.8444 27.0036 14.8737 27.1491 14.8715C27.2597 15.0522 27.1018 14.8299 27.1491 14.9687C27.4915 15.0275 27.8453 15.0083 28.1769 14.913L29.0148 14.4268C29.2361 14.2739 29.3311 14.0238 29.5368 13.8156C29.6791 13.6781 29.6318 13.5239 29.7741 13.371L30.0431 13.0095C30.1064 12.815 30.1213 12.5786 30.2327 12.3007L30.4384 11.7165C30.5017 11.7722 30.4857 11.633 30.5017 11.8416C30.6017 11.2436 30.6279 10.6379 30.5799 10.035C30.5642 10.035 30.6432 9.92365 30.5799 10.0628L30.5482 10.1185C30.5466 10.129 30.5411 10.1388 30.5326 10.1463C30.5169 10.035 30.5169 10.1047 30.5009 10.0212L30.3903 9.64602C30.3746 9.63228 30.3746 9.63228 30.3746 9.61819L30.3113 9.27082C30.2796 9.14575 30.3113 9.21515 30.264 9.13338L30.1076 8.86949C30.1076 8.85575 30.1076 8.85575 30.092 8.84166C30.092 8.82792 30.092 8.82792 30.0763 8.81383L29.9813 8.64719C29.8546 8.48054 29.8707 8.2304 29.7283 8.10533C29.586 7.99401 29.572 8.00809 29.3647 7.98026C29.1118 7.95243 29.2697 7.9246 29.0328 7.89677C28.8271 7.86894 28.4319 7.86894 28.2422 7.85519C27.8146 7.81096 27.382 7.8889 27.0087 8.0775L26.9454 8.10533H26.9137L26.8648 8.12938ZM20.8086 33.5453C20.7613 33.2952 21.1566 33.1423 21.2672 32.9478C21.3939 32.7392 21.2989 32.8103 21.4885 32.6976C21.5991 32.642 21.5358 32.6289 21.6625 32.5447C21.8189 32.4475 21.7407 32.642 21.9944 32.364L22.0101 32.3503C22.1997 32.1417 22.263 31.7943 22.5793 31.6287C22.8323 31.4913 22.7216 31.5036 22.864 31.337L22.9273 31.2813C22.9314 31.2813 22.9354 31.2799 22.9384 31.2773C22.9413 31.2747 22.9429 31.2712 22.9429 31.2676C22.9586 31.2676 22.9586 31.2538 22.9746 31.2538C23.0993 31.1187 23.2369 30.9932 23.3859 30.8786L23.6705 30.6563C23.7339 30.6147 23.7972 30.5034 24.1925 30.5728C24.2875 30.5866 24.2398 30.5866 24.3031 30.6144C24.4452 30.7245 24.5422 30.8724 24.5793 31.0356C24.6165 31.1987 24.5917 31.3681 24.5088 31.5177C24.4103 31.8448 24.352 32.1803 24.3348 32.5183L24.2406 32.8784C24.2547 33.0299 24.2279 33.1822 24.1624 33.323C23.9411 33.6288 23.9884 34.1844 23.9094 34.5599C23.8778 34.6974 23.8144 34.5737 23.7354 34.7407L23.6572 35.1437C23.5466 35.4495 23.5939 35.8247 23.4199 36.2972C23.4031 36.347 23.3925 36.3982 23.3883 36.4501L23.3249 36.5751C23.3249 36.5889 23.3093 36.5889 23.3093 36.603C23.2089 36.7332 23.1389 36.8796 23.1036 37.0338V37.0754L22.6587 38.2134C22.5703 38.4033 22.5221 38.6058 22.5164 38.8109C22.4382 38.8525 22.453 38.8247 22.3741 38.8944C22.3699 38.8944 22.3659 38.8959 22.363 38.8984C22.3601 38.901 22.3584 38.9045 22.3584 38.9082L22.1688 39.172C21.9792 39.561 22.1532 39.5888 22.1688 39.728C22.2005 39.9644 22.1055 39.6593 22.1215 39.9087C22.1375 40.1582 22.1371 39.8531 22.2165 40.0462C22.0269 40.2963 22.2165 40.2685 21.9002 40.477C21.7896 40.5605 21.8052 40.6437 21.7438 40.755L21.7282 40.8107C21.6656 40.8558 21.5965 40.8932 21.5225 40.922V41.1165C21.4908 41.3388 21.5069 41.1852 21.4443 41.2539C21.3708 41.3956 21.3183 41.5451 21.2879 41.6985L21.2406 41.782C21.225 41.7958 21.225 41.8236 21.2089 41.8507L21.1773 41.9342C21.0666 42.1844 20.9083 42.351 20.7976 42.5871C20.766 42.6558 20.7976 42.5871 20.7503 42.6558C20.6803 42.7484 20.6319 42.8524 20.608 42.9616C20.6064 42.9721 20.6009 42.9819 20.5924 42.9894L20.5451 43.1007C20.5134 43.1695 20.5607 43.1007 20.4978 43.1695L20.4344 43.2382L20.4028 43.266L20.1025 43.6134C20.0075 43.7385 19.9758 43.9192 19.8812 44.0443C19.8179 44.1556 19.803 44.225 19.6755 44.2944C19.4226 44.4473 19.6282 44.5445 19.2803 44.8363C19.1379 44.9476 19.2646 44.8363 19.1853 44.9737C19.0746 45.1544 19.0289 45.0572 18.9479 45.1823C18.8213 45.2379 18.8056 45.3767 18.7266 45.4187C18.711 45.4324 18.711 45.4324 18.695 45.4324L18.0624 46.1828C18.0467 46.1828 18.0467 46.1966 18.0307 46.1966C18.0151 46.2522 17.9834 46.3216 17.9674 46.3632C17.8892 46.5006 17.8724 46.4048 17.6827 46.5718L17.2401 46.9607C17.1573 47.0428 17.103 47.144 17.0837 47.2524C16.927 47.2734 16.7796 47.3309 16.6568 47.4191L16.1509 47.7249C15.9945 47.8221 16.2615 47.7111 16.0559 47.7665C15.9247 47.8332 15.7794 47.8757 15.6289 47.8915C15.4233 47.8778 15.2336 47.7943 15.028 47.7665C15.0262 47.6891 14.9924 47.615 14.933 47.5579C14.5533 47.1133 14.7434 46.7518 14.585 46.2934C14.5282 46.103 14.5122 45.9049 14.5377 45.7093C14.5377 45.362 14.759 43.6251 14.8223 43.4581C14.9297 43.2174 14.9989 42.9649 15.028 42.7077C15.0753 42.5132 15.0753 42.5963 15.123 42.4713C15.2011 42.133 15.3176 41.8025 15.471 41.4848L15.5816 41.2903C15.6369 41.2154 15.6696 41.1293 15.6766 41.0402C15.7363 40.7681 15.843 40.5057 15.9929 40.2619C16.0711 40.1245 16.0086 40.2482 16.0711 40.1506C16.2768 39.9005 16.2451 39.5947 16.4824 39.4002L16.4981 39.3865L16.5614 39.303C16.7354 39.0112 16.8933 38.8583 17.178 38.4137L17.7156 37.6496C17.7312 37.6358 17.7312 37.6358 17.7312 37.6217L18.1898 37.0105C18.2055 36.9967 18.268 36.927 18.268 36.927C18.3739 36.794 18.459 36.649 18.521 36.4961C18.5455 36.4655 18.5667 36.4329 18.5843 36.3989L18.711 36.1766C18.7743 36.0391 18.8674 36.0793 19.059 35.857C19.0873 35.8308 19.1192 35.8077 19.154 35.7883L19.3596 35.4966C19.4546 35.3021 19.4378 35.2186 19.6286 35.0798L19.9398 34.7403C20.0665 34.4902 20.0505 34.5458 20.2718 34.3929C20.4651 34.189 20.6294 33.965 20.7609 33.726C20.7861 33.668 20.8019 33.6072 20.8086 33.5453ZM36.4782 13.7713C37.1581 13.7713 37.0001 13.7991 37.0791 13.6599C37.1424 13.5349 37.2058 13.507 37.3321 13.4235C37.7273 13.2012 37.6484 13.0068 37.9486 12.826L38.012 12.7704C38.0753 12.7147 38.012 12.7566 38.0593 12.7288C38.0604 12.7181 38.0659 12.7082 38.0749 12.701L38.3912 12.3257C38.3912 12.312 38.4229 12.2979 38.4229 12.2842L38.7232 11.9925C38.7317 11.9849 38.7372 11.9752 38.7388 11.9646C38.8034 11.8589 38.8831 11.7608 38.9761 11.6729C39.0795 11.5759 39.1698 11.4686 39.2451 11.3534L39.2608 11.3396C39.2733 11.327 39.2839 11.313 39.2924 11.298L39.4821 11.1606C39.5927 11.0634 39.6087 10.8967 39.7194 10.7854C39.7194 10.7854 39.751 10.7576 39.7667 10.7576C39.7772 10.7483 39.7878 10.739 39.7983 10.7297C39.814 10.716 39.83 10.716 39.83 10.7019C40.004 10.5906 40.0196 10.4239 40.1147 10.3683C40.2253 10.2995 40.162 10.3545 40.257 10.3126L40.4134 10.1875C40.4883 10.1496 40.5574 10.1034 40.619 10.0501L40.951 9.49415L40.9666 9.48041C41.1562 9.2581 41.2669 9.31377 41.3146 9.13303C41.343 8.98508 41.3908 8.8405 41.4569 8.70216C41.4735 8.68002 41.495 8.66108 41.5202 8.6465L41.5984 8.53517C41.7251 8.4101 41.7407 8.45168 41.8197 8.2572C41.883 8.11976 41.9464 8.1043 42.041 8.00706L42.0883 7.96549C42.1496 7.85445 42.1973 7.73801 42.2306 7.61811C42.294 7.46521 42.3256 7.50679 42.4519 7.40955C42.5653 7.29378 42.6562 7.16236 42.7209 7.0206C42.7842 6.89553 42.7991 6.82612 42.9582 6.7842C42.9554 6.7124 42.9716 6.641 43.0055 6.57564C43.1479 6.38116 43.0055 6.60347 43.1162 6.51997L43.3218 6.0891L43.3375 6.04753C43.3691 6.0197 43.3691 6.00595 43.4008 5.97881L43.7011 5.68709C43.688 5.40831 43.7363 5.12993 43.8434 4.86727L44.1124 4.28315C44.1804 4.0476 44.2018 3.80353 44.1757 3.5616C44.1601 3.33929 44.1914 3.43653 44.0651 3.33929L43.9701 3.27057C43.5748 3.04826 43.4798 3.35407 43.3535 3.43722L43.2112 3.50594L43.1956 3.51968L43.0532 3.61692C43.0532 3.63066 43.0216 3.64475 43.0059 3.65849C42.8319 3.76982 42.8636 3.83923 42.7213 3.99213L42.5649 4.14503C42.2169 4.50649 42.1223 4.43674 41.964 4.75629C41.9379 4.86277 41.8844 4.96257 41.8076 5.048L41.444 5.3538L41.3967 5.39538L41.27 5.57611L41.2543 5.58986C41.2543 5.6036 41.2387 5.6036 41.2387 5.61769L41.2231 5.63143L40.4959 6.56258C40.2112 6.97936 40.0845 6.85429 39.753 7.42398C39.484 7.92426 39.7847 7.54905 39.4211 7.92426C39.2944 8.03558 39.2944 8.25789 39.1998 8.41045L39.1364 8.47917C39.1364 8.49291 39.1208 8.49291 39.1208 8.507C38.8362 8.72931 39.0101 8.68773 38.8678 8.92378L38.8362 8.96536L38.835 8.97062L38.8316 8.97508L38.8265 8.97806L38.8205 8.9791C38.7099 9.11654 38.6465 9.09043 38.5515 9.25707C38.4248 9.52096 38.3619 9.4378 38.1562 9.86833C38.1077 9.93953 38.0654 10.0138 38.0296 10.0906C37.8239 10.6603 37.9979 10.2435 37.7133 10.5631L37.5236 10.8826C37.5018 11.0016 37.4414 11.1126 37.3497 11.2022L37.1428 11.4922L37.0322 12.034C37.0312 12.0683 37.0203 12.1018 37.0005 12.1313L36.9688 12.1728C36.4469 12.7288 36.7159 12.6594 36.5419 13.1734C36.4473 13.4792 36.4473 13.1737 36.4782 13.7713Z" fill="#F0F2FF"/>
<path d="M53.5623 16.8156C52.7015 16.8156 52.0236 16.5348 51.5287 15.9732C51.0553 15.4116 50.8831 14.7096 51.0122 13.8672C51.1198 13.1112 51.4641 12.4848 52.0452 11.988C52.6477 11.4696 53.3256 11.2104 54.0788 11.2104C54.918 11.2104 55.5744 11.4912 56.0478 12.0528C56.5428 12.6144 56.7257 13.3164 56.5966 14.1588C56.489 14.9148 56.1447 15.552 55.5636 16.0704C54.9826 16.5672 54.3155 16.8156 53.5623 16.8156ZM55.3699 18.792L52.7553 36.45H48.2039L50.8186 18.792H55.3699Z" fill="#F0F2FF"/>
<path d="M61.7769 36.45H57.2255L59.8401 18.792H64.1979L63.8105 21.0924C65.1447 19.2348 66.8771 18.306 69.0075 18.306C69.7822 18.306 70.6215 18.4464 71.5253 18.7272L70.3309 23.0688C69.5778 22.8312 68.9107 22.7124 68.3296 22.7124C66.9524 22.7124 65.7795 23.1876 64.8112 24.138C63.8428 25.0668 63.2295 26.4492 62.9712 28.2852L61.7769 36.45Z" fill="#F0F2FF"/>
<path d="M79.372 36.9036C76.5744 36.9036 74.4117 35.9748 72.8838 34.1172C71.3774 32.2596 70.8394 29.9916 71.2698 27.3132C71.6787 24.6996 72.873 22.5504 74.8528 20.8656C76.8326 19.1592 79.1568 18.306 81.8252 18.306C84.6443 18.306 86.8177 19.2672 88.3456 21.1896C89.852 23.0904 90.347 25.434 89.8305 28.2204C89.3571 30.7692 88.1304 32.8536 86.1506 34.4736C84.1708 36.0936 81.9113 36.9036 79.372 36.9036ZM79.727 32.6592C81.0828 32.6592 82.3094 32.1732 83.4069 31.2012C84.5044 30.2076 85.1607 29.0196 85.3759 27.6372C85.6126 26.2332 85.3436 25.0344 84.5689 24.0408C83.7942 23.0472 82.729 22.5504 81.3733 22.5504C80.0391 22.5504 78.834 23.0256 77.758 23.976C76.6605 24.948 76.0041 26.1036 75.7889 27.4428C75.5307 28.89 75.7782 30.1212 76.5314 31.1364C77.2846 32.1516 78.3498 32.6592 79.727 32.6592Z" fill="#F0F2FF"/>
<path d="M102.917 18.3384C105.521 18.3384 107.544 19.1592 108.986 20.8008C110.449 22.464 110.976 24.678 110.567 27.4428C110.481 28.026 110.341 28.62 110.148 29.2248H96.913C96.9991 30.4128 97.408 31.3416 98.1397 32.0112C98.8928 32.6592 99.9581 32.9832 101.335 32.9832C102.282 32.9832 103.304 32.8104 104.402 32.4648C105.499 32.1192 106.468 31.6764 107.307 31.1364L108.856 34.4412C106.489 36.0396 103.853 36.8388 100.948 36.8388C97.8276 36.8388 95.5681 35.91 94.1693 34.0524C92.7705 32.1948 92.254 29.9484 92.6199 27.3132C92.9642 24.6564 94.094 22.4964 96.0092 20.8332C97.9245 19.17 100.227 18.3384 102.917 18.3384ZM102.723 22.1292C101.54 22.1292 100.475 22.4532 99.5277 23.1012C98.6023 23.7492 97.9029 24.6564 97.4295 25.8228H106.403C106.403 24.678 106.07 23.7816 105.403 23.1336C104.757 22.464 103.864 22.1292 102.723 22.1292Z" fill="#F0F2FF"/>
<path d="M126.287 18.792H132L123.059 26.0172L129.805 36.45H124.253L119.54 28.8684L118.217 29.97L117.248 36.45H112.697L116.344 11.826H120.896L118.959 24.786L126.287 18.792Z" fill="#F0F2FF"/>
</svg>
